<svg xmlns="http://www.w3.org/2000/svg" fill="none" viewBox="0 0 54 54">
  <g fill="#1741AC" clip-path="url(#clip0_13_263)">
    <path d="M25.62 34.37c2.5-.01 7.96-.03 7.9-3.5-.06-3.56-5.31-3.35-7.87-3.24l-.75.02.12 6.72h.6Zm-.27-9.8c2.09 0 6.64 0 6.58-3.16-.05-3.24-4.43-3.05-6.56-2.95l-.63.02.1 6.1h.51Z"/>
    <path fill-rule="evenodd" d="M20.47 53.2A27 27 0 1 0 33.52.8a27 27 0 0 0-13.05 52.4Zm9.63-38.3c3.95.28 7.09 1.43 7.5 5.04.3 2.64-.77 4.25-2.53 5.18 2.93.65 4.78 2.35 4.5 6.24-.37 4.82-3.94 6.18-9.07 6.56l.1 5.08-3.05.05-.09-5c-.79.02-1.6.03-2.44.02l.1 5.02-3.06.06-.09-5.08-.86.01c-.44 0-.88 0-1.32.02l-3.97.06.54-3.65s2.26 0 2.22-.04c.86-.02 1.08-.64 1.13-1.03l-.14-8 .22-.01h.1l-.32-.02-.1-5.71c-.13-.62-.54-1.33-1.78-1.3.03-.05-2.22.03-2.22.03l-.06-3.26 4.22-.07v.02l1.94-.06-.09-5.02 3.05-.05.09 4.92 2.44-.08-.09-4.88 3.05-.05.1 5.01Z" clip-rule="evenodd"/>
  </g>
</svg>
