<svg xmlns="http://www.w3.org/2000/svg" fill="none" viewBox="0 0 54 54">
  <path fill="#2A5F9E" d="M27 52.31A25.31 25.31 0 1 0 27 1.7a25.31 25.31 0 0 0 0 50.62Z"/>
  <path fill="#FFCE31" d="m27 9.96.6 1.85h1.93L28.01 13l.6 1.86L27 13.67l-1.6 1.18.59-1.86-1.52-1.18h1.94L27 9.96Zm0 28.68.6 1.86h1.93l-1.52 1.1.6 1.94L27 42.36l-1.6 1.18.59-1.94-1.52-1.1h1.94l.59-1.86Zm7.09-2.36.59 1.86h2.02l-1.6 1.18.59 1.85-1.6-1.18-1.6 1.18.67-1.85-1.6-1.18h1.94l.59-1.86Zm4.89-4.89.6 1.85h2.02L40 34.42l.58 1.86-1.6-1.18-1.6 1.18.67-1.86-1.6-1.18h1.94l.6-1.85Zm2.36-7.09.6 1.86h1.93l-1.6 1.18.6 1.85-1.53-1.18-1.6 1.18.6-1.85-1.61-1.18h1.94l.67-1.86Zm-2.36-7.17.6 1.94h2.02l-1.6 1.1.58 1.85-1.6-1.1-1.6 1.1.67-1.85-1.6-1.1h1.94l.6-1.94Zm-4.89-4.9.59 1.94h2.02l-1.6 1.1.59 1.86-1.6-1.1-1.6 1.1.67-1.86-1.6-1.1h1.94l.59-1.94ZM19.91 36.28l-.59 1.86H17.3l1.6 1.18-.6 1.85L19.92 40l1.6 1.18-.67-1.85 1.6-1.18H20.5l-.59-1.86Zm-4.89-4.89-.6 1.85H12.4l1.6 1.18-.58 1.86 1.6-1.18 1.6 1.18-.67-1.86 1.6-1.18h-1.94L15 31.4Zm-2.36-7.09-.6 1.86h-1.94l1.6 1.18-.58 1.85 1.52-1.18 1.6 1.18-.6-1.85 1.61-1.18h-1.94l-.67-1.86Zm2.36-7.17-.6 1.94H12.4l1.6 1.1-.58 1.85 1.6-1.1 1.6 1.1-.67-1.85 1.6-1.1h-1.94l-.6-1.94Zm4.89-4.9-.59 1.95H17.3l1.6 1.1-.6 1.85 1.61-1.1 1.6 1.1-.67-1.86 1.6-1.1H20.5l-.59-1.94Z"/>
</svg>
