<svg xmlns="http://www.w3.org/2000/svg" fill="none" viewBox="0 0 291 211">
  <path fill="#3F323F" d="m117.539 174.755-1.127-19.087a80.138 80.138 0 0 0 3.298-1.433 72.528 72.528 0 0 0 9.465-5.292c1.302.958 11.724 8.661 14.621 10.827 3.094 2.303 5.082.034 5.082.034s5.495-5.216 7.069-6.602c1.575-1.386.157-3.532.157-3.532l-10.497-16.01a70.37 70.37 0 0 0 7.654-12.172c1.289.149 14.485 1.664 18.129 2.099 3.833.448 4.423-2.507 4.423-2.507s2.171-7.268 2.836-9.251c.665-1.984-1.614-3.138-1.614-3.138l-17.085-8.647c.696-4.76.903-9.578.618-14.38 1.357-.578 13.373-5.78 16.724-7.214 3.542-1.521 2.592-4.374 2.592-4.374s-1.743-7.39-2.151-9.442c-.407-2.051-2.965-1.915-2.965-1.915L155.69 63.75a63.786 63.786 0 0 0-1.561-3.654 70.636 70.636 0 0 0-5.957-10.352 5572.22 5572.22 0 0 1 10.605-14.821c2.245-3.139-.048-5.088-.048-5.088s-5.299-5.434-6.71-6.976c-1.411-1.542-3.521-.102-3.521-.102L132.676 33.51a70.93 70.93 0 0 0-12.288-7.472c.15-1.359 1.439-14.522 1.812-18.163.393-3.838-2.565-4.381-2.565-4.381s-7.293-2.038-9.295-2.717c-2.001-.68-3.101 1.664-3.101 1.664l-8.372 17.232a69.98 69.98 0 0 0-14.37-.394c-.631-1.412-5.984-13.306-7.463-16.62-1.575-3.533-4.41-2.528-4.41-2.528s-7.349 1.855-9.398 2.303c-2.049.448-1.859 2.995-1.859 2.995l1.323 19.087c-.875.367-1.75.734-2.618 1.142A70.758 70.758 0 0 0 50.03 31.37L35.293 20.687c-3.12-2.276-5.081 0-5.081 0s-5.428 5.27-7.002 6.676c-1.574 1.407-.122 3.533-.122 3.533L33.753 46.79a70.527 70.527 0 0 0-7.538 12.227c-1.357-.143-14.499-1.515-18.135-1.909-3.834-.407-4.397 2.554-4.397 2.554S1.587 66.95.969 68.947c-.617 1.998 1.649 3.111 1.649 3.111l17.172 8.47a71.193 71.193 0 0 0-.475 14.387c-1.357.605-13.318 5.923-16.643 7.391-3.535 1.555-2.544 4.401-2.544 4.401s1.811 7.37 2.246 9.421c.434 2.052 2.985 1.875 2.985 1.875l19.072-1.223a75.92 75.92 0 0 0 1.282 2.969 71.356 71.356 0 0 0 5.496 9.747c-.923 1.27-8.596 11.778-10.747 14.699-2.28 3.111 0 5.088 0 5.088s5.238 5.481 6.635 7.044c1.398 1.562 3.522.136 3.522.136l15.937-10.583a71.53 71.53 0 0 0 12.213 7.601c-.143 1.311-1.588 14.502-2.036 18.156-.427 3.838 2.524 4.408 2.524 4.408s7.274 2.14 9.262 2.799c1.987.659 3.127-1.637 3.127-1.637l8.55-17.151c4.756.671 9.569.853 14.363.543.59 1.359 5.841 13.368 7.293 16.71 1.534 3.545 4.383 2.567 4.383 2.567s7.369-1.772 9.418-2.2c2.049-.428 1.886-2.921 1.886-2.921Zm-73.547-63.463a50.725 50.725 0 0 1-4.108-29.13 50.697 50.697 0 0 1 12.75-26.505A50.603 50.603 0 0 1 77.946 40.71a50.56 50.56 0 0 1 29.339 1.65 50.62 50.62 0 0 1 23.479 17.691 50.707 50.707 0 0 1 9.704 27.769 50.715 50.715 0 0 1-7.34 28.486 50.63 50.63 0 0 1-21.912 19.602 50.623 50.623 0 0 1-38.695 1.607 50.698 50.698 0 0 1-28.528-26.223Z"/>
  <path fill="#3F323F" d="M123.511 74.709a37.495 37.495 0 0 0-35.587-21.676 37.498 37.498 0 0 0-34.863 46.323 37.505 37.505 0 0 0 30.677 28.199 37.496 37.496 0 0 0 21.557-3.045 37.467 37.467 0 0 0 11.813-8.631 37.514 37.514 0 0 0 7.611-12.496 37.509 37.509 0 0 0-1.208-28.674Zm-60.095 27.916a28.792 28.792 0 1 1 38.238 13.986 28.833 28.833 0 0 1-38.238-13.986Z"/>
  <path fill="#3F323F" d="M109.911 81.014a22.505 22.505 0 0 0-42.275 14.8 22.497 22.497 0 0 0 18.406 16.918c4.397.685 8.898.05 12.935-1.822a22.524 22.524 0 0 0 10.934-29.896ZM71.279 98.958A20.078 20.078 0 0 1 84.743 70.97a20.09 20.09 0 0 1 20.967 7.67 20.08 20.08 0 0 1-7.78 30.066 20.086 20.086 0 0 1-26.651-9.748Z"/>
  <path fill="#305AEF" d="m235.256 209.365 2.135-12.586a61.203 61.203 0 0 0 2.368-.435 48.382 48.382 0 0 0 6.952-2.023c.699.821 6.338 7.399 7.902 9.245 1.675 1.968 3.301.791 3.301.791s4.375-2.569 5.608-3.237c1.233-.669.614-2.269.614-2.269l-4.43-11.997a47.475 47.475 0 0 0 6.829-6.744c.809.289 9.203 3.262 11.497 4.096 2.455.87 3.258-.963 3.258-.963s2.51-4.402 3.24-5.597c.73-1.195-.614-2.281-.614-2.281l-9.816-8.202a47.55 47.55 0 0 0 2.558-9.257c.963-.178 9.596-1.754 11.995-2.183 2.534-.453 2.344-2.452 2.344-2.452v-6.467c0-1.404-1.645-1.693-1.645-1.693l-12.583-2.206a48.51 48.51 0 0 0-.473-2.606 47.21 47.21 0 0 0-2.239-7.62l9.123-8.074c1.945-1.698.743-3.317.743-3.317s-2.639-4.328-3.32-5.548c-.681-1.22-2.288-.613-2.288-.613l-11.934 4.617a46.903 46.903 0 0 0-6.878-6.744l3.915-11.544c.834-2.452-1.013-3.237-1.013-3.237s-4.442-2.452-5.644-3.157c-1.203-.705-2.283.613-2.283.613l-8.043 9.95a47.35 47.35 0 0 0-9.271-2.373c-.196-1.011-1.902-9.557-2.362-11.942-.497-2.532-2.491-2.305-2.491-2.305s-5.074.105-6.473.08c-1.399-.025-1.669 1.674-1.669 1.674l-2.012 12.616c-.614.11-1.228.215-1.878.343a47.517 47.517 0 0 0-7.405 2.207l-8.007-9.195c-1.687-1.944-3.313-.754-3.313-.754s-4.344 2.611-5.571 3.292c-1.227.68-.614 2.28-.614 2.28l4.559 11.942a47.456 47.456 0 0 0-6.749 6.836l-11.535-3.967c-2.454-.846-3.252.994-3.252.994s-2.454 4.432-3.184 5.627c-.73 1.196.613 2.281.613 2.281l9.915 8.092a47.34 47.34 0 0 0-2.454 9.288c-.982.19-9.565 1.839-11.958 2.299-2.54.484-2.319 2.483-2.319 2.483s.073 5.063.043 6.467c-.031 1.404 1.663 1.668 1.663 1.668l12.614 2.078a46.765 46.765 0 0 0 2.51 9.294c-.798.687-7.363 6.369-9.204 7.97-1.957 1.679-.773 3.31-.773 3.31s2.589 4.353 3.264 5.579c.675 1.226 2.277.613 2.277.613l11.988-4.488a47.108 47.108 0 0 0 6.798 6.781c-.288.827-3.215 9.195-4.031 11.513-.865 2.452.982 3.249.982 3.249s4.418 2.483 5.608 3.206c1.19.723 2.282-.613 2.282-.613l8.16-9.87a47.368 47.368 0 0 0 9.283 2.52c.178.968 1.792 9.575 2.24 11.966.466 2.538 2.454 2.33 2.454 2.33s5.062-.049 6.467 0c1.405.049 1.626-1.631 1.626-1.631Zm-38.39-52.366a33.813 33.813 0 0 1 1.71-19.569 33.837 33.837 0 0 1 12.302-15.321 33.88 33.88 0 0 1 50.262 14.626 33.815 33.815 0 0 1-6.928 36.951 33.872 33.872 0 0 1-17.232 9.453 33.931 33.931 0 0 1-25.466-4.783 33.878 33.878 0 0 1-14.648-21.357Z"/>
  <path fill="#305AEF" d="M254.465 144.85a25 25 0 0 0-45.404-8.508 24.997 24.997 0 0 0 .307 27.775 24.997 24.997 0 0 0 41.57-.46 25.006 25.006 0 0 0 3.527-18.807Zm-43.258 9.106a19.198 19.198 0 0 1 7.923-19.814 19.207 19.207 0 0 1 21.338-.256 19.199 19.199 0 0 1-6.518 34.878 19.22 19.22 0 0 1-22.749-14.839l.006.031Z"/>
  <path fill="#305AEF" d="M245.66 146.701a16.005 16.005 0 0 0-21.949-11.413 16.004 16.004 0 0 0-9.71 14.893 16 16 0 0 0 19.3 15.475 16.02 16.02 0 0 0 12.359-18.955Zm-29.611 6.248a14.29 14.29 0 1 1 28.02-.276 14.283 14.283 0 0 1-11.15 11.321 14.295 14.295 0 0 1-16.87-11.045Z"/>
  <path fill="#989898" d="m223.717 88.92-.434-7.415c.426-.173.856-.362 1.278-.56a27.052 27.052 0 0 0 3.667-2.055c.515.374 4.564 3.367 5.69 4.209 1.206.897 1.982 0 1.982 0s2.139-2.032 2.746-2.572c.607-.539.06-1.372.06-1.372l-4.081-6.208a27.414 27.414 0 0 0 2.975-4.728l7.053.805c1.487.177 1.721-.97 1.721-.97s.84-2.816 1.097-3.62c.258-.805-.623-1.208-.623-1.208l-6.642-3.36c.266-1.85.346-3.722.237-5.588l6.506-2.817c1.379-.587 1.005-1.697 1.005-1.697s-.676-2.873-.837-3.674c-.16-.8-1.153-.74-1.153-.74l-7.419.402c-.189-.479-.402-.95-.607-1.42a27.909 27.909 0 0 0-2.3-4.024c.338-.479 3.293-4.615 4.118-5.761.88-1.208 0-1.976 0-1.976s-2.059-2.112-2.606-2.712c-.547-.6-1.371-.04-1.371-.04l-6.156 4.18a27.597 27.597 0 0 0-4.772-2.909c.048-.539.559-5.633.699-7.061.157-1.493-.997-1.706-.997-1.706s-2.838-.805-3.618-1.046c-.78-.242-1.206.648-1.206.648l-3.265 6.723a27.003 27.003 0 0 0-5.589-.153c-.249-.551-2.332-5.174-2.907-6.466-.611-1.368-1.713-.977-1.713-.977s-2.863.72-3.655.893c-.792.173-.723 1.163-.723 1.163l.514 7.423c-.341.14-.683.286-1.021.439a27.685 27.685 0 0 0-3.904 2.224l-5.734-4.144c-1.206-.885-1.974 0-1.974 0s-2.119 2.052-2.726 2.6c-.607.547-.044 1.372-.044 1.372l4.145 6.18a27.581 27.581 0 0 0-2.931 4.735l-7.056-.74c-1.492-.16-1.709.99-1.709.99s-.804 2.836-1.065 3.621c-.262.785.643 1.207.643 1.207l6.678 3.291a27.67 27.67 0 0 0-.185 5.593l-6.473 2.873c-1.371.603-.985 1.71-.985 1.71s.7 2.86.873 3.661c.172.801 1.158.728 1.158.728l7.414-.474a27.235 27.235 0 0 0 2.641 4.94c-.362.496-3.345 4.58-4.181 5.718-.889 1.207 0 1.976 0 1.976s2.038 2.132 2.581 2.74c.543.607 1.371.052 1.371.052l6.192-4.088a27.733 27.733 0 0 0 4.744 2.957l-.776 7.054c-.168 1.496.981 1.718.981 1.718s2.815.833 3.619 1.086c.804.254 1.206-.636 1.206-.636l3.321-6.667c1.851.26 3.724.332 5.589.214l2.839 6.494c.595 1.376 1.7.997 1.7.997s2.867-.692 3.663-.857c.796-.165.732-1.174.732-1.174Zm-28.603-24.668a19.72 19.72 0 0 1 13.207-27.478 19.687 19.687 0 0 1 11.425.643 19.705 19.705 0 0 1 9.141 6.89 19.723 19.723 0 0 1-7.639 29.517 19.688 19.688 0 0 1-15.045.622 19.708 19.708 0 0 1-11.089-10.194Z"/>
  <path fill="#989898" d="M225.699 50.103a14.004 14.004 0 0 0-13.286-8.09 14.004 14.004 0 0 0-12.56 9.176 13.998 13.998 0 0 0 19.04 17.51 14.001 14.001 0 0 0 6.806-18.596Zm-22.454 10.428a10.754 10.754 0 0 1 1.833-11.805 10.753 10.753 0 0 1 18.659 6.82 10.747 10.747 0 0 1-14.431 10.547 10.767 10.767 0 0 1-6.061-5.562Z"/>
  <path fill="#989898" d="M221.162 52.202a8.995 8.995 0 0 0-8.548-5.194 9 9 0 1 0 8.548 5.194Zm-15.451 7.174a8.027 8.027 0 0 1 1.375-8.819 8.036 8.036 0 0 1 12.776 9.617 8.038 8.038 0 0 1-12.303 1.736 8.045 8.045 0 0 1-1.848-2.534Z"/>
</svg>
