<svg xmlns="http://www.w3.org/2000/svg" fill="none" viewBox="0 0 54 54">
  <path fill="#081CD0" d="m22.91 37.15-6.27-3.62v9.21l3.19-1.84 6.28 3.61v-9.2l-3.2 1.84Zm-5.65-16.38.04.02v9.18l7.98-4.6-3.28-1.9h.02l4.6 2.65v-9.2l1.26.73V8.44l-8 4.6 6.73 3.88-3.39 1.95-4.6-2.66v5.32-9.18l-7.99 4.6 6.62 3.81-7.99 4.61 8 4.6v-9.2ZM27 54a27 27 0 1 1 0-54 27 27 0 0 1 0 54Zm.88-45.56v9.2l8-4.6-8-4.6Zm8 4.6v9.22l7.98-4.61-7.99-4.6Zm-8 4.6v9.21l8-4.6-8-4.6Zm8 4.62v9.2l7.98-4.6-7.99-4.6Zm-8 4.6v9.2l8-4.6-8-4.6Zm8 4.6v9.21l7.98-4.6-7.99-4.6ZM7.2 17.35v9.2l8-4.6-8-4.6Zm4.16 9.24v9.21l8-4.6-8-4.6ZM27.81 37.5v9.2l7.98-4.6-7.98-4.6Zm.07-10.65-7.99 4.62 7.99 4.6v-9.22ZM11.37 29l-8 4.6 8 4.61V29Zm32.5-11.35-8 4.6 8 4.6v-9.2Zm-8 4.6-8 4.6 8 4.62v-9.21Zm8 4.6-8 4.62 8 4.6v-9.22Zm-8 4.62-8 4.6 8 4.6v-9.2Zm0-18.42-8 4.6 8 4.6v-9.2Z"/>
</svg>
