<svg width="94" height="88" viewBox="0 0 94 88" fill="none" xmlns="http://www.w3.org/2000/svg">
<path d="M68.932 63.6513C66.8866 63.6513 64.8769 62.3841 61.9948 59.2768C59.8695 56.9888 58.5168 56.4203 56.9574 55.7647C56.0418 55.381 55.004 54.9463 53.8036 54.1437C52.0899 52.988 50.4939 51.6866 49.036 50.2559C46.0562 51.2776 43.208 51.7959 40.5581 51.7959C33.1847 51.7959 29.2885 47.8922 28.0044 46.2968C26.2983 46.5867 24.5684 46.7366 22.8344 46.7447C15.9912 46.7447 12.6514 44.1672 12.188 43.7791C3.38393 37.2917 6.50097 28.2735 8.63759 25.718C9.30969 24.9146 9.47513 24.4174 9.72611 23.665C10.1322 22.4479 10.637 20.937 13.2041 17.769C15.008 15.547 18.6674 12.4731 25.8556 10.4482L26.0107 10.4051C26.0586 10.3488 26.1207 10.2731 26.1742 10.2071C26.6884 9.57439 27.6444 8.39695 30.0376 7.16055C31.3606 6.457 32.8561 6.08706 34.3776 6.08695C35.0225 6.09409 35.6658 6.14793 36.3018 6.24799C36.4898 6.27439 36.6872 6.30256 36.816 6.31224C36.9025 6.25944 37.0303 6.17407 37.1384 6.10191C38.4422 5.23071 41.1531 3.4188 48.7239 2.84592C49.4693 2.7896 50.2279 2.75792 50.9695 2.75792C58.6259 2.75792 63.7536 5.73231 64.8064 6.39847C77.6007 9.62279 80.9518 16.28 81.6483 18.1139C86.619 21.0179 87.56 25.696 87.5995 25.8993L87.6051 25.9336C89.0386 35.149 84.6808 38.9497 82.939 40.0761C82.8346 47.19 75.3597 50.1081 70.7349 50.7813C70.7189 51.4562 71.0461 53.086 72.6422 57.0081L72.8217 57.4481C73.3566 58.7822 73.3284 60.3345 72.7494 61.4961C72.5434 61.9291 72.2456 62.3183 71.8739 62.6401C71.5022 62.9619 71.0645 63.2095 70.5873 63.3679C70.0571 63.5509 69.4971 63.6467 68.932 63.6513ZM49.7109 47.6423L50.258 48.2363C51.7394 49.7637 53.3885 51.1408 55.1779 52.345C56.1866 53.0209 57.0307 53.3737 57.9246 53.7486C59.5903 54.4465 61.3086 55.1689 63.7799 57.8283C66.066 60.2923 67.7044 61.4425 68.9348 61.4425C69.2311 61.4387 69.5244 61.3866 69.8015 61.2885C69.9829 61.2274 70.1487 61.1317 70.2885 61.0075C70.4283 60.8833 70.539 60.7332 70.6137 60.5669C70.9295 59.9306 70.9305 59.0128 70.6137 58.2261L70.4388 57.7957C68.5757 53.2197 67.742 50.3157 68.9912 49.0309L69.2939 48.7203L69.7404 48.6754C70.1973 48.6288 80.9518 47.4434 80.5711 39.5146L80.5363 38.7869L81.2366 38.4701C81.4538 38.368 86.7394 35.7509 85.2739 26.2733C85.2138 25.9811 84.3339 22.1082 80.0691 19.8018L79.633 19.5659L79.5136 19.1083C79.4328 18.817 77.3413 11.7814 64.0036 8.48055L63.7883 8.42687L63.6088 8.30367C63.5609 8.27199 58.6024 4.96408 50.9724 4.96408C50.2918 4.96408 49.6009 4.99047 48.9175 5.0424C41.9973 5.57039 39.6435 7.14295 38.5127 7.89887C38.0511 8.20687 37.6873 8.45063 37.1967 8.50872C36.8601 8.54743 36.439 8.49903 35.9587 8.43127C35.4394 8.34772 34.9139 8.30212 34.387 8.29487C33.2642 8.29738 32.1613 8.5727 31.1863 9.09391C29.2302 10.1042 28.4989 11.0053 28.0618 11.543C27.7704 11.902 27.4977 12.2417 27.0212 12.423C26.9507 12.4494 26.7881 12.4986 26.5446 12.5673C19.9646 14.4214 16.684 17.1486 15.0916 19.1092C12.7727 21.9666 12.3356 23.276 11.9896 24.3276C11.7076 25.168 11.4444 25.9626 10.5063 27.0837C8.74193 29.1737 6.24435 36.6177 13.6741 42.064C15.4094 43.3356 17.2903 44.5852 22.8307 44.5333C24.6702 44.5155 26.504 44.337 28.308 44L29.1315 43.846L29.5564 44.5236C29.6861 44.7277 32.883 49.5915 40.5543 49.5915C43.1309 49.5915 45.9481 49.0336 48.9288 47.9345L49.7109 47.6423Z" fill="#305AEF"/>
<path d="M11.4154 27.4446C12.0358 26.7018 12.189 26.2425 12.4212 25.5473C12.7972 24.4226 13.2672 23.0234 15.6369 20.0983C17.3045 18.0453 20.6857 15.2046 27.3286 13.3338L27.4715 13.2933C27.5157 13.2414 27.573 13.1718 27.6229 13.1111C28.0976 12.5259 28.9821 11.4391 31.1949 10.2951C32.4175 9.64467 33.7996 9.30262 35.2058 9.30249C35.8009 9.30931 36.3946 9.35903 36.9815 9.45121C37.1563 9.47585 37.3368 9.50137 37.4562 9.51105C37.5361 9.46265 37.6545 9.38345 37.7542 9.31657C38.9583 8.51137 41.4644 6.83761 48.4589 6.30433C49.1489 6.25153 49.8473 6.22513 50.5344 6.22513C57.6098 6.22513 62.3493 8.97337 63.3184 9.58849C75.1408 12.5717 78.2362 18.7194 78.8801 20.416C83.4739 23.0974 84.3434 27.4226 84.3791 27.61L84.3848 27.6417C84.9666 31.3799 84.5164 34.1537 83.692 36.1777C84.9412 34.3578 86.042 31.2699 85.2731 26.2715C85.2129 25.9794 84.3331 22.1065 80.0683 19.8L79.6321 19.5642L79.5127 19.1066C79.4319 18.8153 77.3404 11.7797 64.0027 8.47881L63.7875 8.42513L63.6079 8.30193C63.56 8.27025 58.6015 4.96233 50.9715 4.96233C50.291 4.96233 49.6001 4.98873 48.9167 5.04065C41.9964 5.56865 39.6426 7.14121 38.5118 7.89713C38.0503 8.20513 37.6865 8.44889 37.1958 8.50697C36.8593 8.54569 36.4382 8.49729 35.9578 8.42953C35.4385 8.34598 34.913 8.30037 34.3862 8.29313C33.2634 8.29563 32.1605 8.57096 31.1855 9.09217C29.2293 10.1024 28.498 11.0035 28.0609 11.5412C27.7695 11.9002 27.4969 12.2399 27.0203 12.4212C26.9498 12.4476 26.7872 12.4969 26.5437 12.5655C19.9637 14.4197 16.6831 17.1468 15.0908 19.1074C12.7718 21.9648 12.3347 23.2742 11.9888 24.3258C11.7068 25.1662 11.4436 25.9609 10.5055 27.082C9.18946 28.6598 7.44576 33.271 9.84088 37.7802C8.35662 33.3177 10.0881 29.0312 11.4154 27.4446Z" fill="#5974FF"/>
<path d="M63.3945 24.6224L63.293 23.0006C63.3926 22.9627 63.4932 22.9214 63.5919 22.8782C63.8896 22.7492 64.1762 22.5989 64.4492 22.4286C64.5695 22.5104 65.5161 23.1651 65.7793 23.349C66.0613 23.5453 66.2427 23.349 66.2427 23.349C66.2427 23.349 66.7428 22.9046 66.8847 22.7867C67.0266 22.6688 66.8988 22.4866 66.8988 22.4866L65.9447 21.1288C66.2135 20.8072 66.4466 20.4607 66.6403 20.0948L68.2891 20.2708C68.6369 20.3095 68.6914 20.0587 68.6914 20.0587C68.6914 20.0587 68.8878 19.4427 68.948 19.2667C69.0082 19.0907 68.8023 19.0027 68.8023 19.0027L67.2494 18.2679C67.3117 17.8632 67.3303 17.4537 67.3049 17.0456L68.8258 16.4296C69.1482 16.3011 69.0608 16.0582 69.0608 16.0582C69.0608 16.0582 68.9029 15.4299 68.8653 15.2548C68.8277 15.0797 68.5955 15.0929 68.5955 15.0929L66.8612 15.1809C66.817 15.0762 66.7672 14.9732 66.7193 14.8702C66.5664 14.5635 66.3866 14.2691 66.1816 13.9902C66.2605 13.8855 66.9514 12.9809 67.1441 12.7301C67.35 12.4661 67.1441 12.298 67.1441 12.298C67.1441 12.298 66.6629 11.836 66.535 11.7049C66.4072 11.5738 66.2145 11.6961 66.2145 11.6961L64.7753 12.6104C64.4273 12.3635 64.0535 12.1504 63.6596 11.9742C63.6708 11.8562 63.7902 10.7422 63.8231 10.4298C63.8598 10.1033 63.59 10.0566 63.59 10.0566C63.59 10.0566 62.9264 9.88063 62.744 9.82783C62.5616 9.77503 62.462 9.96951 62.462 9.96951L61.6987 11.44C61.2656 11.3866 60.8277 11.3754 60.3921 11.4066C60.3338 11.286 59.8469 10.2749 59.7125 9.99239C59.5696 9.69319 59.3121 9.77855 59.3121 9.77855C59.3121 9.77855 58.6428 9.93607 58.4576 9.97391C58.2724 10.0118 58.2884 10.2282 58.2884 10.2282L58.4087 11.8518C58.3288 11.8826 58.2489 11.9143 58.17 11.9478C57.8521 12.0865 57.5469 12.2493 57.2572 12.4344L55.9168 11.528C55.6348 11.3344 55.4552 11.528 55.4552 11.528C55.4552 11.528 54.9599 11.9768 54.8179 12.0965C54.676 12.2162 54.8076 12.3966 54.8076 12.3966L55.7767 13.7482C55.5114 14.0709 55.2818 14.4179 55.0915 14.784L53.4418 14.6221C53.093 14.5869 53.0423 14.8386 53.0423 14.8386C53.0423 14.8386 52.8543 15.459 52.7932 15.6306C52.7321 15.8022 52.9436 15.8946 52.9436 15.8946L54.5049 16.6144C54.4462 17.0197 54.4317 17.4295 54.4617 17.8376L52.9483 18.4659C52.6277 18.5979 52.718 18.8399 52.718 18.8399C52.718 18.8399 52.8815 19.4656 52.9219 19.6407C52.9624 19.8158 53.1927 19.8 53.1927 19.8L54.926 19.6962C54.9636 19.7842 55.0022 19.8651 55.0435 19.9478C55.1863 20.2362 55.3535 20.5134 55.5436 20.7768C55.459 20.885 54.7615 21.7782 54.566 22.0273C54.3583 22.2913 54.566 22.4594 54.566 22.4594C54.566 22.4594 55.0426 22.9258 55.1695 23.0586C55.2964 23.1915 55.49 23.0701 55.49 23.0701L56.9376 22.176C57.2831 22.426 57.6548 22.6427 58.0468 22.8228C58.0337 22.9346 57.9021 24.0548 57.8654 24.3654C57.8259 24.6928 58.0948 24.7412 58.0948 24.7412C58.0948 24.7412 58.7528 24.9234 58.9408 24.9788C59.1288 25.0342 59.2228 24.8398 59.2228 24.8398L59.9992 23.3816C60.4319 23.4386 60.8697 23.4542 61.3058 23.4282L61.9694 24.8486C62.1086 25.1495 62.3671 25.0668 62.3671 25.0668C62.3671 25.0668 63.0373 24.9154 63.2234 24.8794C63.4095 24.8433 63.3945 24.6224 63.3945 24.6224ZM56.7073 19.2271C56.3227 18.4536 56.1918 17.5906 56.3313 16.7474C56.4708 15.9042 56.8743 15.1187 57.4909 14.4903C58.1075 13.8619 58.9093 13.4189 59.795 13.2173C60.6806 13.0158 61.6102 13.0647 62.4661 13.358C63.322 13.6513 64.0658 14.1756 64.6032 14.8648C65.1406 15.5539 65.4475 16.3769 65.4851 17.2294C65.5227 18.0819 65.2893 18.9257 64.8144 19.654C64.3395 20.3823 63.6445 20.9623 62.8173 21.3206C61.7103 21.8002 60.4454 21.8491 59.2999 21.4566C58.1545 21.0641 57.2221 20.2623 56.7073 19.2271Z" fill="#989898"/>
<path d="M63.9463 16.0802C63.6649 15.513 63.2101 15.0365 62.6395 14.7112C62.0688 14.3858 61.408 14.2262 60.7404 14.2525C60.0729 14.2787 59.4287 14.4897 58.8892 14.8587C58.3497 15.2277 57.9392 15.7381 57.7096 16.3255C57.48 16.9129 57.4416 17.5508 57.5993 18.1586C57.7569 18.7665 58.1035 19.3169 58.5953 19.7403C59.0871 20.1637 59.7019 20.4411 60.3621 20.5374C61.0222 20.6337 61.6981 20.5446 62.3041 20.2814C63.1169 19.9281 63.7465 19.287 64.0545 18.4992C64.3624 17.7113 64.3235 16.8412 63.9463 16.0802ZM58.5281 18.436C58.3119 18.0004 58.2386 17.5145 58.3173 17.0398C58.3961 16.5651 58.6234 16.123 58.9706 15.7692C59.3177 15.4155 59.7692 15.1661 60.2678 15.0526C60.7663 14.939 61.2897 14.9665 61.7716 15.1314C62.2536 15.2963 62.6725 15.5913 62.9753 15.9791C63.2781 16.3668 63.4514 16.83 63.473 17.3099C63.4947 17.7899 63.3639 18.2651 63.0971 18.6754C62.8303 19.0857 62.4395 19.4128 61.9742 19.6152C61.35 19.8857 60.6368 19.9134 59.9908 19.6924C59.3449 19.4713 58.8189 19.0195 58.5281 18.436Z" fill="#989898"/>
<path d="M62.8183 16.5704C62.64 16.2118 62.3522 15.9108 61.9912 15.7055C61.6301 15.5001 61.2122 15.3995 60.7901 15.4165C60.3681 15.4336 59.9609 15.5674 59.6201 15.8011C59.2793 16.0348 59.0201 16.3578 58.8755 16.7294C58.7308 17.101 58.7071 17.5043 58.8073 17.8885C58.9076 18.2727 59.1273 18.6204 59.4387 18.8877C59.7501 19.155 60.1391 19.3298 60.5566 19.3901C60.9741 19.4503 61.4014 19.3933 61.7843 19.2262C62.2971 19.0019 62.694 18.5964 62.8878 18.0985C63.0817 17.6006 63.0567 17.051 62.8183 16.5704ZM59.1523 18.1641C58.9936 17.8439 58.94 17.4869 58.9981 17.1382C59.0562 16.7895 59.2234 16.4647 59.4786 16.205C59.7338 15.9452 60.0656 15.7621 60.4319 15.6789C60.7983 15.5956 61.1828 15.616 61.5368 15.7373C61.8908 15.8586 62.1985 16.0754 62.4209 16.3604C62.6433 16.6454 62.7704 16.9857 62.7863 17.3383C62.8021 17.6909 62.7059 18.04 62.5098 18.3414C62.3137 18.6429 62.0265 18.8831 61.6846 19.0318C61.4575 19.1306 61.2118 19.1866 60.9616 19.1965C60.7113 19.2064 60.4615 19.17 60.2263 19.0894C59.9911 19.0088 59.7752 18.8856 59.5909 18.7269C59.4066 18.5681 59.2575 18.3768 59.1523 18.1641Z" fill="#989898"/>
<path d="M69.9256 39.6079L70.2527 37.8013C70.374 37.7828 70.4953 37.7617 70.6156 37.7388C70.9778 37.6671 71.3339 37.57 71.6806 37.4484C71.7878 37.5663 72.6516 38.5106 72.8913 38.7754C73.1479 39.0579 73.397 38.889 73.397 38.889C73.397 38.889 74.0673 38.5202 74.2562 38.4243C74.4451 38.3284 74.3502 38.0987 74.3502 38.0987L73.6715 36.3766C74.0543 36.0878 74.4048 35.7635 74.7177 35.4086C74.8418 35.4499 76.1277 35.8767 76.4793 35.9964C76.8553 36.1214 76.9784 35.8582 76.9784 35.8582C76.9784 35.8582 77.3629 35.2264 77.4748 35.0548C77.5866 34.8832 77.3808 34.7274 77.3808 34.7274L75.8768 33.55C76.055 33.1206 76.1863 32.6754 76.2687 32.2212C76.4163 32.1957 77.7389 31.9695 78.1064 31.9079C78.4947 31.8428 78.4655 31.5559 78.4655 31.5559C78.4655 31.5559 78.4655 30.829 78.4655 30.6275C78.4655 30.426 78.2136 30.3846 78.2136 30.3846L76.2857 30.0678C76.265 29.9429 76.2415 29.8188 76.2133 29.6938C76.132 29.3208 76.0172 28.9549 75.8702 28.6L77.268 27.441C77.5659 27.1973 77.3817 26.965 77.3817 26.965C77.3817 26.965 76.9775 26.3437 76.8732 26.1686C76.7688 25.9934 76.5225 26.0806 76.5225 26.0806L74.6942 26.7432C74.3794 26.3875 74.0263 26.0632 73.6405 25.7752L74.2402 24.1182C74.3681 23.7662 74.0851 23.6535 74.0851 23.6535C74.0851 23.6535 73.4046 23.3015 73.2203 23.2003C73.0361 23.0991 72.8706 23.2883 72.8706 23.2883L71.6383 24.7166C71.1784 24.5583 70.7025 24.4442 70.218 24.376C70.1879 24.2308 69.9266 23.0041 69.8561 22.6618C69.7799 22.2983 69.4744 22.3309 69.4744 22.3309C69.4744 22.3309 68.697 22.3458 68.4827 22.3423C68.2684 22.3388 68.227 22.5826 68.227 22.5826L67.9187 24.3936C67.8247 24.4094 67.7307 24.4244 67.6311 24.4429C67.2443 24.5194 66.8649 24.6253 66.4965 24.7597L65.2698 23.4397C65.0113 23.1607 64.7622 23.3314 64.7622 23.3314C64.7622 23.3314 64.0967 23.7063 63.9087 23.804C63.7207 23.9017 63.8147 24.1314 63.8147 24.1314L64.5131 25.8456C64.1339 26.1391 63.7875 26.4678 63.4791 26.8268L61.7119 26.2574C61.3359 26.136 61.2137 26.4 61.2137 26.4C61.2137 26.4 60.8377 27.0362 60.7259 27.2078C60.614 27.3794 60.8199 27.5352 60.8199 27.5352L62.3389 28.6968C62.1656 29.1281 62.0396 29.5748 61.9629 30.03C61.8125 30.0573 60.4974 30.294 60.1308 30.36C59.7417 30.4295 59.7755 30.7164 59.7755 30.7164C59.7755 30.7164 59.7868 31.4433 59.7821 31.6448C59.7774 31.8463 60.0368 31.8842 60.0368 31.8842L61.9695 32.1825C61.9873 32.2837 62.0061 32.3858 62.0296 32.487C62.1082 32.8377 62.2167 33.182 62.3539 33.5166C62.2317 33.6151 61.2259 34.4309 60.9439 34.6606C60.6441 34.9017 60.8255 35.1358 60.8255 35.1358C60.8255 35.1358 61.2222 35.7606 61.3256 35.9366C61.429 36.1126 61.6743 36.0246 61.6743 36.0246L63.5111 35.3804C63.8219 35.7372 64.1709 36.0633 64.5526 36.3537C64.5084 36.4725 64.06 37.6737 63.935 38.0063C63.8025 38.3583 64.0854 38.4727 64.0854 38.4727C64.0854 38.4727 64.7622 38.8291 64.9446 38.933C65.1269 39.0368 65.2943 38.845 65.2943 38.845L66.5444 37.4282C67.0041 37.5937 67.4807 37.7149 67.9667 37.7898C67.9939 37.9289 68.2411 39.1644 68.3098 39.5076C68.3812 39.8719 68.6858 39.842 68.6858 39.842C68.6858 39.842 69.4613 39.835 69.6765 39.842C69.8918 39.849 69.9256 39.6079 69.9256 39.6079ZM64.0441 32.091C63.8328 31.151 63.9239 30.1735 64.306 29.2821C64.6882 28.3906 65.344 27.6253 66.1908 27.0828C67.0375 26.5403 68.0371 26.2451 69.063 26.2344C70.089 26.2237 71.0953 26.4981 71.9547 27.0228C72.8141 27.5475 73.488 28.299 73.8912 29.1823C74.2944 30.0655 74.4088 31.0409 74.2199 31.985C74.031 32.9291 73.5472 33.7996 72.8299 34.4864C72.1125 35.1731 71.1938 35.6453 70.1898 35.8433C68.8434 36.107 67.4403 35.8601 66.2882 35.1567C65.1361 34.4532 64.329 33.3507 64.0441 32.091Z" fill="#305AEF"/>
<path d="M72.85 30.36C72.6948 29.6699 72.3245 29.0384 71.7859 28.5453C71.2474 28.0522 70.5647 27.7197 69.8243 27.5898C69.0839 27.46 68.319 27.5385 67.6263 27.8156C66.9335 28.0927 66.3441 28.5558 65.9326 29.1465C65.521 29.7372 65.3058 30.4288 65.3141 31.134C65.3224 31.8392 65.5539 32.5262 65.9793 33.1082C66.4047 33.6902 67.0049 34.1411 67.704 34.4037C68.4031 34.6664 69.1696 34.7292 69.9068 34.584C70.8953 34.3891 71.7607 33.8346 72.3126 33.0425C72.8646 32.2504 73.0578 31.2855 72.85 30.36ZM66.2596 31.6589C66.1396 31.1289 66.1903 30.5775 66.4051 30.0744C66.62 29.5714 66.9894 29.1393 67.4666 28.8328C67.9439 28.5264 68.5075 28.3593 69.0861 28.3528C69.6648 28.3463 70.2325 28.5006 70.7175 28.7962C71.2025 29.0918 71.5829 29.5154 71.8106 30.0135C72.0383 30.5116 72.1032 31.0617 71.9968 31.5942C71.8905 32.1268 71.6179 32.6179 71.2134 33.0053C70.8089 33.3928 70.2907 33.6592 69.7245 33.7709C68.9651 33.9199 68.1737 33.7808 67.5238 33.384C66.874 32.9871 66.419 32.3651 66.2587 31.6545L66.2596 31.6589Z" fill="#305AEF"/>
<path d="M71.4766 30.624C71.3784 30.1878 71.1443 29.7887 70.8039 29.4771C70.4634 29.1655 70.0319 28.9555 69.5639 28.8734C69.0959 28.7914 68.6124 28.8412 68.1746 29.0164C67.7368 29.1916 67.3644 29.4845 67.1043 29.8578C66.8443 30.2312 66.7084 30.6684 66.7138 31.1141C66.7192 31.5598 66.8656 31.994 67.1346 32.3618C67.4036 32.7296 67.783 33.0145 68.2249 33.1804C68.6668 33.3463 69.1514 33.3858 69.6173 33.2939C70.2417 33.1701 70.7881 32.8194 71.1366 32.3189C71.4852 31.8183 71.6075 31.2088 71.4766 30.624ZM67.0219 31.504C66.9341 31.1142 66.9719 30.7087 67.1305 30.339C67.289 29.9692 67.5613 29.6519 67.9126 29.4271C68.264 29.2023 68.6788 29.0803 69.1043 29.0763C69.5299 29.0724 69.9471 29.1868 70.3032 29.4051C70.6592 29.6234 70.938 29.9356 71.1043 30.3024C71.2706 30.6691 71.3169 31.0738 71.2373 31.4652C71.1577 31.8566 70.9558 32.217 70.6572 32.5009C70.3586 32.7848 69.9767 32.9793 69.5599 33.0598C69.0031 33.1672 68.4236 33.0638 67.948 32.7722C67.4724 32.4807 67.1395 32.0247 67.0219 31.504Z" fill="#305AEF"/>
<path d="M51.592 42.8402L51.4359 40.3674C51.5891 40.3093 51.7414 40.2468 51.8928 40.1817C52.3475 39.9842 52.7859 39.755 53.2041 39.4962C53.3845 39.6202 54.8284 40.6182 55.2298 40.8989C55.6584 41.1972 55.9338 40.9033 55.9338 40.9033C55.9338 40.9033 56.6952 40.2274 56.9133 40.0479C57.1314 39.8684 56.9349 39.5903 56.9349 39.5903L55.4807 37.5162C55.8908 37.0258 56.2461 36.4974 56.5411 35.9392C56.7197 35.9586 58.548 36.1548 59.0527 36.2111C59.5838 36.2692 59.6656 35.8864 59.6656 35.8864C59.6656 35.8864 59.9664 34.9448 60.0585 34.6878C60.1507 34.4309 59.8348 34.2813 59.8348 34.2813L57.4679 33.161C57.5642 32.5444 57.5929 31.9202 57.5534 31.2981C57.7414 31.2233 59.4062 30.5492 59.8705 30.3635C60.3612 30.1664 60.2296 29.7968 60.2296 29.7968C60.2296 29.7968 59.988 28.8394 59.9316 28.5736C59.8752 28.3078 59.5209 28.3254 59.5209 28.3254L56.8776 28.4592C56.8108 28.2999 56.7394 28.1424 56.6614 27.9858C56.4272 27.5177 56.1512 27.069 55.8361 26.6446C55.9583 26.4845 57.0101 25.1064 57.3053 24.7245C57.6164 24.3179 57.2987 24.0654 57.2987 24.0654C57.2987 24.0654 56.5646 23.3614 56.369 23.1616C56.1735 22.9618 55.8812 23.1484 55.8812 23.1484L53.6891 24.5414C53.1581 24.1656 52.5878 23.8413 51.9868 23.5734C52.0074 23.3974 52.186 21.692 52.2377 21.2203C52.2923 20.7231 51.8824 20.6527 51.8824 20.6527C51.8824 20.6527 50.8719 20.3887 50.5946 20.3007C50.3173 20.2127 50.165 20.5163 50.165 20.5163L49.0051 22.7489C48.3451 22.668 47.6779 22.6509 47.0142 22.6978C46.9267 22.5148 46.1851 20.9739 45.9802 20.5445C45.7621 20.0869 45.3692 20.2171 45.3692 20.2171C45.3692 20.2171 44.3511 20.4574 44.0673 20.5154C43.7834 20.5735 43.8097 20.9035 43.8097 20.9035L43.993 23.3763C43.8717 23.4238 43.7505 23.4714 43.6302 23.5242C43.1457 23.735 42.6804 23.9825 42.239 24.2642L40.1973 22.88C39.7649 22.5852 39.4932 22.88 39.4932 22.88C39.4932 22.88 38.7412 23.5629 38.5231 23.745C38.3051 23.9272 38.5062 24.2026 38.5062 24.2026L39.9839 26.2618C39.5791 26.7552 39.2291 27.2859 38.9396 27.8458C38.7516 27.8274 36.9308 27.6496 36.4269 27.5986C35.8958 27.5458 35.8178 27.9294 35.8178 27.9294C35.8178 27.9294 35.5274 28.8737 35.4418 29.1324C35.3563 29.3911 35.6702 29.5354 35.6702 29.5354L38.0494 30.6328C37.9602 31.2504 37.9381 31.8749 37.9836 32.4966C37.7956 32.575 36.1384 33.264 35.6778 33.4541C35.188 33.6556 35.3253 34.0243 35.3253 34.0243C35.3253 34.0243 35.5762 34.9791 35.6364 35.2449C35.6966 35.5106 36.05 35.4878 36.05 35.4878L38.6923 35.3294C38.7487 35.4578 38.807 35.5863 38.87 35.7139C39.0881 36.1529 39.3427 36.5751 39.6314 36.9767C39.5036 37.1413 38.4404 38.5026 38.1424 38.881C37.8266 39.2841 38.1424 39.5402 38.1424 39.5402C38.1424 39.5402 38.8681 40.2503 39.0618 40.4527C39.2554 40.6551 39.5496 40.4703 39.5496 40.4703L41.7577 39.0993C42.2849 39.4799 42.8518 39.8098 43.4497 40.084C43.4299 40.2538 43.2297 41.9628 43.1677 42.4362C43.1085 42.9334 43.5174 43.0074 43.5174 43.0074C43.5174 43.0074 44.525 43.2846 44.8005 43.3699C45.0759 43.4553 45.2338 43.1578 45.2338 43.1578L46.4182 40.9358C47.0772 41.0228 47.744 41.0464 48.4082 41.0062C48.49 41.1822 49.2175 42.7381 49.4187 43.171C49.6311 43.6304 50.0259 43.5037 50.0259 43.5037C50.0259 43.5037 51.0468 43.274 51.3306 43.2186C51.6145 43.1631 51.592 42.8402 51.592 42.8402ZM41.4024 34.6183C40.8182 33.4407 40.6202 32.1274 40.8333 30.8444C41.0465 29.5614 41.6612 28.3664 42.5998 27.4105C43.5384 26.4547 44.7588 25.7808 46.1064 25.4742C47.4541 25.1676 48.8687 25.242 50.1712 25.688C51.4738 26.134 52.6058 26.9316 53.4241 27.9799C54.2424 29.0282 54.7103 30.2801 54.7686 31.5774C54.8269 32.8746 54.473 34.1589 53.7516 35.2679C53.0302 36.3768 51.9738 37.2606 50.7159 37.8074C49.0288 38.5386 47.1008 38.6134 45.3548 38.0156C43.6088 37.4177 42.1874 36.196 41.4024 34.6183Z" fill="#3F323F"/>
<path d="M52.4323 29.8232C52.0034 28.9584 51.3102 28.2321 50.4404 27.7361C49.5705 27.2401 48.5631 26.9967 47.5455 27.0368C46.528 27.0768 45.5459 27.3984 44.7236 27.961C43.9013 28.5235 43.2756 29.3017 42.9258 30.1972C42.5759 31.0926 42.5176 32.0651 42.7581 32.9916C42.9986 33.9181 43.5272 34.757 44.277 35.4023C45.0269 36.0475 45.9643 36.4701 46.9706 36.6166C47.977 36.763 49.0072 36.6268 49.9309 36.2252C50.5442 35.9586 51.0954 35.5816 51.5531 35.1156C52.0107 34.6496 52.3658 34.1037 52.5981 33.5092C52.8304 32.9147 52.9353 32.2832 52.9068 31.6508C52.8784 31.0183 52.7171 30.3973 52.4323 29.8232ZM44.18 33.4118C43.8506 32.7479 43.7389 32.0074 43.859 31.2841C43.9791 30.5607 44.3257 29.8869 44.8549 29.3479C45.3841 28.809 46.0721 28.429 46.8319 28.2561C47.5918 28.0832 48.3893 28.1251 49.1237 28.3766C49.8581 28.628 50.4964 29.0777 50.9578 29.6688C51.4192 30.2598 51.683 30.9657 51.7159 31.6971C51.7487 32.4285 51.5492 33.1526 51.1425 33.7778C50.7357 34.4031 50.1401 34.9014 49.4308 35.2097C48.4796 35.6216 47.3928 35.6637 46.4085 35.3267C45.4242 34.9897 44.6228 34.3011 44.18 33.4118Z" fill="#3F323F"/>
<path d="M50.7138 30.5703C50.4425 30.024 50.0043 29.5653 49.4545 29.2522C48.9047 28.939 48.2681 28.7855 47.6252 28.811C46.9822 28.8365 46.3618 29.0399 45.8423 29.3954C45.3228 29.751 44.9276 30.2428 44.7066 30.8086C44.4856 31.3744 44.4487 31.9888 44.6007 32.5743C44.7527 33.1597 45.0866 33.6898 45.5604 34.0975C46.0341 34.5053 46.6263 34.7724 47.2622 34.8651C47.8981 34.9578 48.549 34.8719 49.1327 34.6183C49.9153 34.2773 50.5214 33.6595 50.8178 32.9005C51.1143 32.1416 51.0769 31.3035 50.7138 30.5703ZM45.1274 33C44.8849 32.5122 44.8024 31.9681 44.8904 31.4364C44.9783 30.9047 45.2328 30.4094 45.6216 30.0131C46.0104 29.6169 46.5159 29.3375 47.0744 29.2104C47.6328 29.0832 48.219 29.1141 48.7587 29.2989C49.2984 29.4838 49.7675 29.8144 50.1064 30.2489C50.4454 30.6833 50.639 31.2022 50.6628 31.7398C50.6867 32.2773 50.5396 32.8094 50.2403 33.2687C49.941 33.728 49.5029 34.0939 48.9814 34.32C48.2833 34.6227 47.4853 34.6537 46.7628 34.4062C46.0402 34.1588 45.4521 33.653 45.1274 33Z" fill="#3F323F"/>
<path d="M63.3429 48.3437L63.2705 47.1856C63.3429 47.1592 63.4134 47.1302 63.4848 47.0976C63.6969 47.0046 63.9014 46.8972 64.0968 46.7764C64.1814 46.8345 64.8572 47.3044 65.0452 47.4329C65.2332 47.5614 65.3742 47.4329 65.3742 47.4329C65.3742 47.4329 65.7314 47.117 65.832 47.0334C65.9326 46.9498 65.8424 46.8186 65.8424 46.8186L65.1627 45.8506C65.3544 45.6213 65.5204 45.3742 65.6581 45.1132L66.8341 45.2417C67.0813 45.269 67.1161 45.0894 67.1161 45.0894C67.1161 45.0894 67.2561 44.6494 67.3041 44.528C67.352 44.4066 67.1988 44.3388 67.1988 44.3388L66.0924 43.8108C66.1376 43.5222 66.1508 43.2299 66.1319 42.9387L67.2166 42.4987C67.446 42.4107 67.384 42.2347 67.384 42.2347C67.384 42.2347 67.2712 41.7868 67.2448 41.6627C67.2185 41.5386 67.0568 41.5457 67.0568 41.5457L65.8207 41.6082C65.7897 41.5342 65.7559 41.4603 65.7192 41.3873C65.6103 41.1682 65.482 40.958 65.3357 40.759C65.393 40.6842 65.8847 40.04 66.0228 39.8605C66.161 39.681 66.0228 39.5525 66.0228 39.5525C66.0228 39.5525 65.6788 39.2234 65.5867 39.1292C65.4946 39.035 65.3592 39.1239 65.3592 39.1239L64.3337 39.7751C64.085 39.5992 63.818 39.4473 63.5365 39.3219C63.5459 39.2339 63.6305 38.4419 63.654 38.221C63.6775 38.0002 63.4877 37.957 63.4877 37.957C63.4877 37.957 63.0177 37.8321 62.8851 37.7934C62.7526 37.7546 62.684 37.8946 62.684 37.8946L62.1341 38.9426C61.8246 38.9045 61.5119 38.8962 61.2006 38.918C61.1612 38.83 60.8134 38.1119 60.7175 37.9104C60.6216 37.7089 60.4355 37.7573 60.4355 37.7573C60.4355 37.7573 59.9589 37.8699 59.8254 37.8972C59.6919 37.9245 59.7051 38.0785 59.7051 38.0785L59.7916 39.2357C59.7352 39.2577 59.6778 39.2806 59.6214 39.3052C59.3946 39.4037 59.1767 39.5193 58.97 39.651L58.014 39.0034C57.8129 38.8661 57.685 39.0034 57.685 39.0034C57.685 39.0034 57.3316 39.3237 57.2319 39.409C57.1323 39.4944 57.2235 39.6229 57.2235 39.6229L57.9144 40.5909C57.7251 40.8222 57.5617 41.0711 57.4265 41.3336L56.2497 41.2183C56.0015 41.1928 55.9677 41.3723 55.9677 41.3723C55.9677 41.3723 55.8323 41.8123 55.79 41.9355C55.7477 42.0587 55.8972 42.1238 55.8972 42.1238L57.011 42.6378C56.9689 42.9267 56.9581 43.2189 56.9791 43.5098L55.9009 43.9578C55.6715 44.0528 55.7364 44.2218 55.7364 44.2218C55.7364 44.2218 55.853 44.6688 55.8821 44.7938C55.9112 44.9187 56.0757 44.9073 56.0757 44.9073L57.3119 44.8334C57.3382 44.8941 57.3654 44.953 57.3946 45.0094C57.4963 45.2148 57.6154 45.4122 57.7508 45.5998C57.6907 45.6773 57.1934 46.3144 57.0543 46.4913C56.9152 46.6682 57.0543 46.7993 57.0543 46.7993C57.0543 46.7993 57.3946 47.1319 57.4848 47.227C57.575 47.322 57.7132 47.2349 57.7132 47.2349L58.7472 46.5934C58.9938 46.7716 59.259 46.9261 59.5387 47.0545C59.5284 47.1337 59.4353 47.9345 59.409 48.1554C59.3827 48.3762 59.5716 48.4194 59.5716 48.4194C59.5716 48.4194 60.0416 48.5478 60.1723 48.5883C60.3029 48.6288 60.3753 48.488 60.3753 48.488L60.929 47.4496C61.2375 47.4904 61.5496 47.5013 61.8605 47.4822C61.8991 47.5649 62.2365 48.2926 62.3305 48.495C62.4245 48.6974 62.6125 48.6508 62.6125 48.6508C62.6125 48.6508 63.0891 48.5426 63.2226 48.5179C63.3561 48.4933 63.3429 48.3437 63.3429 48.3437ZM58.5762 44.4954C58.3034 43.9441 58.2114 43.3295 58.3117 42.7293C58.4121 42.129 58.7003 41.5701 59.1399 41.1232C59.5796 40.6763 60.1509 40.3614 60.7816 40.2185C61.4124 40.0755 62.0743 40.1109 62.6836 40.32C63.2929 40.5292 63.8222 40.9028 64.2048 41.3936C64.5873 41.8844 64.8057 42.4704 64.8325 43.0774C64.8593 43.6844 64.6933 44.2853 64.3553 44.804C64.0174 45.3227 63.5228 45.7359 62.934 45.9914C62.1441 46.3335 61.2415 46.368 60.4244 46.0875C59.6074 45.807 58.9426 45.2344 58.5762 44.4954Z" fill="#C4C4C4"/>
<path d="M63.7368 42.2514C63.5367 41.8461 63.2126 41.5055 62.8055 41.2727C62.3985 41.0398 61.9269 40.9253 61.4503 40.9436C60.9737 40.9619 60.5136 41.1122 60.1283 41.3754C59.743 41.6386 59.4498 42.0029 59.2858 42.4222C59.1217 42.8415 59.0943 43.297 59.207 43.7309C59.3196 44.1648 59.5672 44.5576 59.9185 44.8597C60.2698 45.1618 60.7089 45.3595 61.1803 45.4278C61.6516 45.4961 62.1341 45.432 62.5665 45.2434C63.145 44.9915 63.5931 44.5349 63.8125 43.974C64.0319 43.4131 64.0047 42.7936 63.7368 42.2514ZM59.8781 43.9314C59.7237 43.6206 59.6712 43.2739 59.7274 42.9351C59.7835 42.5964 59.9457 42.2809 60.1934 42.0285C60.4411 41.7761 60.7632 41.5981 61.119 41.5171C61.4748 41.4362 61.8482 41.4558 62.1921 41.5735C62.5359 41.6912 62.8348 41.9018 63.0508 42.1785C63.2668 42.4553 63.3903 42.7858 63.4056 43.1283C63.4209 43.4708 63.3274 43.8098 63.1369 44.1025C62.9463 44.3952 62.6674 44.6284 62.3352 44.7726C61.8901 44.9654 61.3815 44.9851 60.9209 44.8274C60.4603 44.6697 60.0853 44.3475 59.8781 43.9314Z" fill="#C4C4C4"/>
<path d="M21.432 41.4955L21.3587 40.3383C21.4311 40.311 21.5016 40.282 21.573 40.2503C21.7852 40.1576 21.9897 40.0502 22.1849 39.9291L23.1325 40.5856C23.3336 40.7264 23.4624 40.5856 23.4624 40.5856C23.4624 40.5856 23.8187 40.2697 23.9211 40.1861C24.0236 40.1025 23.9315 39.9714 23.9315 39.9714L23.2509 39.0034C23.4423 38.7739 23.6083 38.5268 23.7463 38.2659L24.9222 38.3935C25.1694 38.4208 25.2089 38.2413 25.2089 38.2413C25.2089 38.2413 25.349 37.8013 25.3922 37.6798C25.4355 37.5584 25.286 37.488 25.286 37.488L24.1796 36.96C24.2243 36.6713 24.2375 36.3791 24.2191 36.0879L25.3039 35.6479C25.5332 35.5555 25.4712 35.3839 25.4712 35.3839C25.4712 35.3839 25.3584 34.936 25.3321 34.811C25.3057 34.6861 25.1441 34.6958 25.1441 34.6958L23.907 34.7574C23.8751 34.6834 23.8422 34.6095 23.8055 34.5365C23.696 34.3177 23.5677 34.1076 23.422 33.9082C23.4784 33.8334 23.9709 33.1892 24.1091 33.0106C24.2473 32.8319 24.1091 32.7017 24.1091 32.7017C24.1091 32.7017 23.7651 32.3726 23.673 32.2784C23.5808 32.1842 23.4455 32.2731 23.4455 32.2731L22.4199 32.9243C22.1712 32.7488 21.9045 32.5967 21.6238 32.4702C21.6322 32.3866 21.7178 31.5902 21.7403 31.3702C21.7629 31.1502 21.5739 31.1062 21.5739 31.1062C21.5739 31.1062 21.1039 30.9813 20.9714 30.9426C20.8389 30.9038 20.7702 31.0438 20.7702 31.0438L20.2288 32.0892C19.9194 32.051 19.6066 32.0428 19.2954 32.0646C19.2559 31.9766 18.9081 31.2585 18.8122 31.057C18.7163 30.8554 18.5302 30.9038 18.5302 30.9038C18.5302 30.9038 18.0536 31.0165 17.9211 31.0438C17.7886 31.071 17.7998 31.225 17.7998 31.225L17.8863 32.3822C17.8299 32.4042 17.7726 32.4271 17.7162 32.4518C17.4893 32.5505 17.2715 32.6665 17.0648 32.7985C16.9849 32.7439 16.2996 32.2802 16.1097 32.1499C15.9198 32.0197 15.7798 32.1499 15.7798 32.1499C15.7798 32.1499 15.4263 32.4694 15.3258 32.5547C15.2252 32.6401 15.3182 32.7686 15.3182 32.7686L16.0091 33.7322C15.8199 33.9637 15.6562 34.2125 15.5203 34.4749L14.3453 34.3596C14.0962 34.335 14.0633 34.5136 14.0633 34.5136C14.0633 34.5136 13.928 34.9536 13.8857 35.0768C13.8434 35.2 13.9928 35.266 13.9928 35.266L15.1058 35.779C15.0642 36.068 15.0542 36.3602 15.0757 36.6511L13.9966 37.099C13.7672 37.1941 13.8312 37.363 13.8312 37.363C13.8312 37.363 13.9496 37.8083 13.9769 37.9342C14.0041 38.06 14.1705 38.0477 14.1705 38.0477L15.4066 37.9738C15.4339 38.0336 15.4602 38.0926 15.4903 38.1498C15.5918 38.3556 15.7109 38.5533 15.8465 38.7411C15.7864 38.8186 15.2891 39.4557 15.15 39.6326C15.0109 39.8094 15.15 39.9406 15.15 39.9406C15.15 39.9406 15.4893 40.2741 15.5805 40.3682C15.6717 40.4624 15.792 40.392 15.792 40.392L16.826 39.7505C17.0723 39.9287 17.3371 40.0832 17.6165 40.2116C17.6071 40.2908 17.5141 41.0916 17.4878 41.3125C17.4614 41.5334 17.6504 41.5765 17.6504 41.5765C17.6504 41.5765 18.1204 41.7058 18.251 41.7454C18.3817 41.785 18.4541 41.6451 18.4541 41.6451L19.0087 40.6067C19.3168 40.6476 19.6287 40.6585 19.9393 40.6393C19.9778 40.722 20.3153 41.4498 20.4093 41.6522C20.5033 41.8546 20.6913 41.8079 20.6913 41.8079C20.6913 41.8079 21.1688 41.6997 21.3023 41.675C21.4358 41.6504 21.432 41.4955 21.432 41.4955ZM16.6634 37.6473C16.3907 37.096 16.2988 36.4814 16.3992 35.8812C16.4995 35.281 16.7878 34.7222 17.2274 34.2753C17.667 33.8284 18.2382 33.5136 18.8689 33.3707C19.4996 33.2277 20.1615 33.263 20.7707 33.4721C21.38 33.6812 21.9094 34.0548 22.2919 34.5455C22.6745 35.0362 22.893 35.6221 22.9199 36.2291C22.9468 36.8361 22.7809 37.4369 22.4431 37.9556C22.1053 38.4743 21.6108 38.8876 21.0222 39.1433C20.232 39.4856 19.3291 39.5204 18.5116 39.2399C17.6942 38.9594 17.0291 38.3866 16.6624 37.6473H16.6634Z" fill="#C4C4C4"/>
<path d="M21.824 35.4033C21.6232 34.9988 21.2988 34.6591 20.8918 34.4272C20.4848 34.1954 20.0135 34.0817 19.5375 34.1005C19.0614 34.1194 18.6021 34.2699 18.2174 34.5332C17.8328 34.7964 17.5402 35.1605 17.3766 35.5794C17.213 35.9983 17.1857 36.4532 17.2982 36.8867C17.4108 37.3201 17.6581 37.7125 18.0088 38.0144C18.3596 38.3163 18.7981 38.514 19.2689 38.5825C19.7397 38.6511 20.2216 38.5875 20.6537 38.3997C20.9408 38.2749 21.1988 38.0984 21.413 37.8803C21.6271 37.6622 21.7933 37.4067 21.902 37.1285C22.0107 36.8502 22.0597 36.5546 22.0464 36.2586C22.033 35.9626 21.9574 35.6719 21.824 35.4033ZM17.9606 37.0832C17.8069 36.7722 17.7551 36.4255 17.8119 36.0869C17.8686 35.7484 18.0313 35.4332 18.2794 35.1812C18.5275 34.9292 18.8499 34.7518 19.2057 34.6713C19.5615 34.5908 19.9348 34.6109 20.2784 34.729C20.6221 34.8472 20.9205 35.058 21.1362 35.335C21.3518 35.6119 21.4748 35.9425 21.4897 36.2849C21.5046 36.6273 21.4107 36.9662 21.22 37.2587C21.0292 37.5511 20.75 37.784 20.4178 37.928C19.9722 38.1203 19.4633 38.1394 19.0027 37.981C18.5421 37.8227 18.1674 37.4998 17.9606 37.0832Z" fill="#C4C4C4"/>
<path d="M29.955 34.6069L30.0876 33.0686C30.1881 33.0458 30.2878 33.0194 30.3865 32.9903C30.6851 32.9055 30.9764 32.7996 31.2579 32.6735C31.3575 32.7615 32.1565 33.4981 32.3783 33.7031C32.6143 33.9231 32.8117 33.763 32.8117 33.763C32.8117 33.763 33.3447 33.411 33.496 33.3159C33.6473 33.2209 33.5515 33.0343 33.5515 33.0343L32.8465 31.636C33.1448 31.3667 33.4129 31.0695 33.6464 30.749C33.7554 30.7754 34.8684 31.0446 35.1711 31.1203C35.4926 31.1995 35.58 30.9698 35.58 30.9698C35.58 30.9698 35.8516 30.4137 35.9325 30.2614C36.0133 30.1092 35.8319 29.9974 35.8319 29.9974L34.4745 29.1174C34.5919 28.7445 34.6675 28.3611 34.7001 27.9734L36.2164 27.5845C36.5378 27.5026 36.4899 27.2642 36.4899 27.2642C36.4899 27.2642 36.4297 26.6534 36.4203 26.4845C36.4109 26.3155 36.1891 26.2988 36.1891 26.2988L34.546 26.1668C34.5187 26.063 34.4896 25.96 34.452 25.857C34.3513 25.5493 34.2233 25.2499 34.0694 24.9621L35.156 23.8902C35.3863 23.6658 35.2134 23.4837 35.2134 23.4837C35.2134 23.4837 34.8261 22.9909 34.7227 22.8501C34.6193 22.7093 34.4228 22.8026 34.4228 22.8026L32.9423 23.4846C32.6489 23.2096 32.3267 22.9629 31.9807 22.748C32.0099 22.6398 32.2787 21.604 32.3567 21.3171C32.4366 21.0135 32.1894 20.937 32.1894 20.937C32.1894 20.937 31.5906 20.6906 31.4271 20.6166C31.2635 20.5427 31.1451 20.7161 31.1451 20.7161L30.2182 22C29.819 21.8966 29.4095 21.8317 28.9962 21.8064C28.9596 21.6867 28.6437 20.6756 28.5572 20.394C28.4632 20.0939 28.2104 20.1423 28.2104 20.1423C28.2104 20.1423 27.5599 20.2083 27.3794 20.2215C27.1989 20.2347 27.1839 20.4398 27.1839 20.4398L27.072 21.9806C26.9921 22 26.9122 22.0194 26.8333 22.0422C26.5146 22.133 26.2046 22.2483 25.9064 22.3872L24.769 21.3664C24.5293 21.1499 24.3348 21.311 24.3348 21.311C24.3348 21.311 23.8055 21.6709 23.6561 21.7668C23.5066 21.8627 23.6034 22.0466 23.6034 22.0466L24.3244 23.4379C24.0291 23.7103 23.7642 24.0102 23.5339 24.3329L22.0054 23.9765C21.683 23.9008 21.5994 24.1305 21.5994 24.1305C21.5994 24.1305 21.3324 24.6902 21.2534 24.8433C21.1745 24.9964 21.3568 25.1073 21.3568 25.1073L22.7236 25.9767C22.612 26.3504 22.5409 26.7337 22.5112 27.1207C22.3871 27.1542 21.3014 27.4446 20.9996 27.5238C20.6791 27.6118 20.7289 27.8485 20.7289 27.8485C20.7289 27.8485 20.7957 28.4566 20.8088 28.6264C20.822 28.7962 21.0419 28.8094 21.0419 28.8094L22.686 28.9265C22.7095 29.0145 22.733 29.0937 22.7603 29.1773C22.8541 29.4662 22.9726 29.7475 23.1146 30.0186C23.0206 30.1066 22.2376 30.8642 22.0177 31.0746C21.7977 31.2849 21.9566 31.4794 21.9566 31.4794C21.9566 31.4794 22.3391 31.9774 22.4407 32.1182C22.5422 32.259 22.7405 32.1684 22.7405 32.1684L24.2295 31.504C24.5189 31.7816 24.8377 32.031 25.1808 32.2485C25.1526 32.3514 24.8715 33.3925 24.7925 33.6785C24.7136 33.9645 24.9542 34.0595 24.9542 34.0595C24.9542 34.0595 25.5521 34.3103 25.7137 34.386C25.8754 34.4617 26.0004 34.2892 26.0004 34.2892L26.9404 33.0158C27.3393 33.1226 27.7488 33.191 28.1624 33.22C28.1963 33.3353 28.5018 34.3534 28.5854 34.6377C28.6738 34.9378 28.9295 34.892 28.9295 34.892C28.9295 34.892 29.5809 34.8322 29.7614 34.8225C29.9419 34.8128 29.955 34.6069 29.955 34.6069ZM24.4278 28.7065C24.1772 27.9322 24.1773 27.1057 24.4284 26.3316C24.6794 25.5574 25.17 24.8703 25.8381 24.3571C26.5062 23.8439 27.3218 23.5277 28.1819 23.4484C29.0419 23.3692 29.9078 23.5304 30.67 23.9118C31.4321 24.2932 32.0564 24.8775 32.4639 25.591C32.8713 26.3045 33.0437 27.1151 32.9591 27.9202C32.8745 28.7254 32.5369 29.489 31.9888 30.1145C31.4407 30.7401 30.7067 31.1994 29.8798 31.4345C28.7704 31.7487 27.5732 31.6378 26.551 31.1264C25.5288 30.6149 24.7652 29.7446 24.4278 28.7065Z" fill="#5974FF"/>
<path d="M31.6781 26.642C31.4935 26.0734 31.1329 25.5689 30.6419 25.1922C30.151 24.8155 29.5517 24.5836 28.92 24.5258C28.2882 24.468 27.6523 24.5868 27.0927 24.8674C26.5332 25.1479 26.075 25.5775 25.7762 26.1018C25.4775 26.6261 25.3515 27.2216 25.4143 27.8129C25.477 28.4043 25.7257 28.9649 26.1289 29.4239C26.532 29.8829 27.0715 30.2197 27.6791 30.3917C28.2867 30.5636 28.9352 30.563 29.5424 30.3899C29.9455 30.2751 30.3206 30.0871 30.6461 29.8367C30.9716 29.5862 31.2412 29.2781 31.4395 28.9301C31.6378 28.5821 31.761 28.2009 31.8019 27.8083C31.8428 27.4157 31.8008 27.0194 31.6781 26.642ZM26.2505 28.1882C26.1088 27.7519 26.1085 27.286 26.2495 26.8495C26.3905 26.413 26.6666 26.0254 27.0428 25.7358C27.419 25.4461 27.8785 25.2674 28.3632 25.2221C28.8479 25.1768 29.3361 25.2671 29.766 25.4815C30.196 25.6959 30.5484 26.0248 30.7787 26.4266C31.009 26.8285 31.1069 27.2852 31.06 27.7391C31.0132 28.193 30.8236 28.6237 30.5154 28.9768C30.2071 29.3299 29.7939 29.5896 29.3281 29.7229C28.7026 29.9007 28.0273 29.839 27.4503 29.5513C26.8734 29.2636 26.4419 28.7733 26.2505 28.1882Z" fill="#5974FF"/>
<path d="M30.55 26.9632C30.433 26.6042 30.2049 26.2857 29.8945 26.048C29.5842 25.8103 29.2055 25.6641 28.8065 25.6279C28.4074 25.5916 28.0058 25.6669 27.6524 25.8443C27.2991 26.0217 27.0098 26.2932 26.8213 26.6245C26.6327 26.9558 26.5533 27.3319 26.5931 27.7055C26.6329 28.079 26.79 28.4331 27.0447 28.723C27.2995 29.0129 27.6403 29.2255 28.0241 29.3341C28.4079 29.4427 28.8175 29.4423 29.2011 29.333C29.7154 29.186 30.1464 28.8538 30.3994 28.4094C30.6523 27.9651 30.7064 27.4449 30.55 26.9632ZM26.8783 28.0095C26.7741 27.6889 26.7739 27.3466 26.8776 27.0258C26.9813 26.7051 27.1842 26.4203 27.4608 26.2076C27.7374 25.9949 28.0752 25.8637 28.4314 25.8307C28.7876 25.7977 29.1463 25.8644 29.4621 26.0223C29.7778 26.1802 30.0364 26.4222 30.2052 26.7177C30.374 27.0133 30.4454 27.349 30.4103 27.6825C30.3752 28.016 30.2352 28.3323 30.0081 28.5913C29.781 28.8503 29.4769 29.0405 29.1343 29.1377C28.6751 29.2682 28.1793 29.2227 27.7559 29.0111C27.3326 28.7996 27.0162 28.4393 26.8764 28.0095H26.8783Z" fill="#5974FF"/>
<path d="M15.886 67.6254H28.1887L27.7187 69.703H21.7328L20.5935 74.712H25.5887L25.1187 76.8187H20.1254L18.2557 84.9904H11.9464L15.886 67.6254Z" fill="#101010"/>
<path d="M37.7983 73.0946L42.268 67.6254H45.7779L38.8501 75.416L43.2033 84.9904H35.9869L33.5043 79.552L29.0055 84.9904H25.5002L32.3942 77.088L28.1003 67.6254H35.3157L37.7983 73.0946Z" fill="#101010"/>
<path d="M64.3054 84.9904H57.8194L60.5078 73.1764L53.5847 84.9904H49.6113L48.2953 72.7663L45.496 84.9904H42.864L46.812 67.6254H54.2605L55.1667 77.4154L60.7747 67.6254H68.2825L64.3054 84.9904Z" fill="#101010"/>
<path d="M77.6488 72.6563C77.7153 72.2863 77.7446 71.9112 77.7362 71.5361C77.7365 71.2661 77.7167 70.9965 77.677 70.7291C77.6434 70.4843 77.5748 70.2449 77.473 70.0172C77.3826 69.816 77.2301 69.6447 77.0349 69.5253C76.8053 69.3991 76.5414 69.338 76.2754 69.3493C75.9395 69.3456 75.608 69.4207 75.311 69.5675C75.0229 69.7123 74.7629 69.9015 74.5421 70.1272C74.0804 70.6021 73.8249 71.2213 73.8258 71.8634C73.8258 72.3386 73.9574 72.7035 74.2206 72.9582C74.5147 73.2327 74.8669 73.4468 75.2546 73.5865C75.7275 73.7636 76.2164 73.9008 76.7153 73.9966C77.2605 74.1068 77.8245 74.2344 78.4073 74.3794C78.906 74.5115 79.3941 74.6761 79.8681 74.8722C80.348 75.0692 80.7878 75.3425 81.1681 75.68C81.5718 76.0509 81.8856 76.4986 82.0884 76.993C82.3215 77.5315 82.4384 78.2015 82.439 79.0029C82.439 80.1522 82.1955 81.1202 81.7086 81.9069C81.2187 82.6928 80.5257 83.351 79.6933 83.8209C78.836 84.3125 77.8183 84.668 76.6401 84.8874C75.3744 85.114 74.088 85.2239 72.7993 85.2157C71.3968 85.2157 70.2525 85.1277 69.3664 84.9517C68.4803 84.7757 67.7841 84.5891 67.2777 84.392C66.6743 84.1573 66.2262 83.884 65.9335 83.5718L66.9281 79.8222H72.0689C72.0501 79.9858 72.0304 80.2094 72.0116 80.4918C71.9928 80.7743 71.9815 80.9978 71.9815 81.1624C71.9834 81.3924 72.0127 81.6214 72.0689 81.8453C72.1261 82.0764 72.2213 82.2979 72.3509 82.5018C72.4822 82.707 72.6685 82.8766 72.8914 82.9937C73.1598 83.1299 73.4624 83.1962 73.7675 83.1855C74.1294 83.1914 74.4864 83.1066 74.8015 82.94C75.0952 82.7827 75.3534 82.5735 75.562 82.324C75.767 82.0774 75.9259 81.8001 76.032 81.5038C76.1362 81.2176 76.1902 80.9175 76.1918 80.615C76.205 80.256 76.0978 79.9022 75.8853 79.603C75.6657 79.3164 75.3813 79.0784 75.0525 78.9061C74.6692 78.7006 74.2628 78.5353 73.8408 78.4133C73.3827 78.2772 72.9102 78.1358 72.4233 77.9891C71.9558 77.8624 71.4626 77.7087 70.9437 77.528C70.4298 77.3474 69.9512 77.0887 69.5272 76.7624C69.0856 76.4194 68.723 75.9961 68.4612 75.5181C68.1786 75.0171 68.0373 74.3744 68.0373 73.59C68.0373 72.4243 68.3537 71.4446 68.9867 70.6508C69.6258 69.8525 70.4432 69.1942 71.3818 68.7218C72.3742 68.2196 73.4433 67.8634 74.5515 67.6658C75.6289 67.4632 76.7247 67.358 77.8236 67.3517C79.1866 67.3517 80.36 67.5019 81.3439 67.8022C82.3278 68.1026 83.0726 68.4546 83.5783 68.8582L82.4973 72.659L77.6488 72.6563Z" fill="#101010"/>
</svg>
