<svg xmlns="http://www.w3.org/2000/svg" fill="none" viewBox="0 0 100 100">
  <path fill="#305AEF" d="M73.332 72.33c-2.176 0-4.314-1.44-7.38-4.97-2.261-2.6-3.7-3.246-5.36-3.991-.973-.436-2.077-.93-3.354-1.842a36.47 36.47 0 0 1-5.072-4.418c-3.17 1.16-6.2 1.75-9.02 1.75-7.843 0-11.988-4.436-13.354-6.25-1.815.33-3.655.5-5.5.51-7.28 0-10.833-2.93-11.326-3.37-9.366-7.372-6.05-17.62-3.777-20.524.715-.913.89-1.478 1.158-2.333.432-1.383.969-3.1 3.7-6.7 1.919-2.525 5.812-6.018 13.459-8.32l.165-.048.174-.225c.547-.72 1.564-2.057 4.11-3.462a9.35 9.35 0 0 1 4.617-1.22c.686.008 1.37.07 2.047.183.2.03.41.062.547.073.092-.06.228-.157.343-.24 1.387-.99 4.27-3.048 12.325-3.7.793-.063 1.6-.1 2.389-.1 8.145 0 13.6 3.38 14.72 4.138C82.553 10.935 86.119 18.5 86.86 20.584c5.288 3.3 6.289 8.616 6.33 8.847l.007.039c1.525 10.472-3.111 14.79-4.964 16.07-.111 8.085-8.063 11.4-12.983 12.166-.017.767.33 2.619 2.029 7.076l.19.5c.57 1.516.54 3.28-.076 4.6a3.972 3.972 0 0 1-2.3 2.127 5.22 5.22 0 0 1-1.761.322ZM52.884 54.14l.582.675a33.411 33.411 0 0 0 5.234 4.669c1.073.768 1.97 1.169 2.922 1.595 1.772.793 3.6 1.614 6.229 4.636 2.432 2.8 4.175 4.107 5.484 4.107.315-.004.627-.064.922-.175a1.48 1.48 0 0 0 .864-.82c.336-.723.337-1.766 0-2.66l-.186-.49c-1.982-5.2-2.87-8.5-1.54-9.96l.322-.352.475-.051c.486-.053 11.927-1.4 11.522-10.41l-.037-.827.745-.36c.23-.116 5.854-3.09 4.295-13.86-.064-.332-1-4.733-5.537-7.354l-.464-.268-.127-.52c-.086-.331-2.311-8.326-16.5-12.077l-.23-.061-.19-.14C67.618 9.4 62.343 5.64 54.226 5.64c-.724 0-1.46.03-2.186.089-7.362.6-9.866 2.387-11.07 3.246-.49.35-.877.627-1.4.693-.357.044-.805-.011-1.316-.088a10.81 10.81 0 0 0-1.672-.155 6.9 6.9 0 0 0-3.405.908c-2.081 1.148-2.86 2.172-3.324 2.783-.31.408-.6.794-1.107 1-.075.03-.248.086-.507.164-7 2.107-10.49 5.206-12.184 7.434-2.467 3.247-2.932 4.735-3.3 5.93-.3.955-.58 1.858-1.578 3.132C9.3 33.152 6.643 41.61 14.547 47.8c1.846 1.445 3.847 2.865 9.74 2.806A31.425 31.425 0 0 0 30.116 50l.876-.175.452.77c.138.232 3.539 5.759 11.7 5.759 2.74 0 5.738-.634 8.909-1.883l.832-.332Z"/>
  <path fill="#5974FF" d="M12.144 31.187c.66-.844.823-1.366 1.07-2.156.4-1.278.9-2.868 3.42-6.192 1.775-2.333 5.372-5.56 12.439-7.687l.152-.046c.047-.059.108-.138.16-.207.506-.665 1.447-1.9 3.8-3.2a8.637 8.637 0 0 1 4.268-1.128c.633.008 1.264.064 1.889.17.186.027.378.056.505.067.085-.055.21-.145.317-.22 1.28-.916 3.947-2.818 11.388-3.424.734-.06 1.477-.09 2.208-.09 7.527 0 12.569 3.123 13.6 3.822 12.577 3.39 15.87 10.376 16.555 12.304 4.887 3.047 5.812 7.962 5.85 8.175l.006.036c.619 4.248.14 7.4-.737 9.7 1.329-2.068 2.5-5.577 1.682-11.257-.064-.332-1-4.733-5.537-7.354l-.464-.268-.127-.52c-.086-.33-2.311-8.326-16.5-12.077l-.23-.06-.19-.14c-.051-.037-5.326-3.796-13.443-3.796-.724 0-1.46.03-2.186.09-7.362.6-9.866 2.386-11.07 3.245-.49.35-.877.627-1.4.693-.357.044-.805-.01-1.316-.088a10.81 10.81 0 0 0-1.672-.155 6.9 6.9 0 0 0-3.405.908c-2.081 1.148-2.86 2.172-3.324 2.783-.31.408-.6.794-1.107 1-.075.03-.248.086-.507.164-7 2.107-10.49 5.206-12.184 7.434-2.467 3.247-2.932 4.735-3.3 5.93-.3.955-.58 1.858-1.578 3.132-1.4 1.793-3.255 7.033-.707 12.157-1.58-5.07.263-9.942 1.675-11.745Z"/>
  <path fill="#989898" d="m67.44 27.98-.107-1.843a6.774 6.774 0 0 0 1.23-.65c.128.093 1.135.837 1.415 1.046.3.223.493 0 .493 0s.532-.505.683-.64c.15-.133.015-.34.015-.34l-1.015-1.543a6.87 6.87 0 0 0 .74-1.175l1.754.2c.37.044.428-.241.428-.241s.209-.7.273-.9c.064-.2-.155-.3-.155-.3l-1.652-.835c.066-.46.086-.925.059-1.39l1.618-.7c.343-.145.25-.421.25-.421s-.168-.714-.208-.913c-.04-.2-.287-.184-.287-.184l-1.845.1c-.047-.12-.1-.236-.151-.353a6.943 6.943 0 0 0-.572-1c.084-.12.819-1.147 1.024-1.432.219-.3 0-.491 0-.491s-.512-.525-.648-.674c-.136-.15-.341-.01-.341-.01L68.91 14.33a6.873 6.873 0 0 0-1.187-.723c.012-.134.139-1.4.174-1.755.039-.371-.248-.424-.248-.424s-.706-.2-.9-.26c-.194-.06-.3.16-.3.16L65.637 13a6.722 6.722 0 0 0-1.39-.038c-.062-.137-.58-1.286-.723-1.607-.152-.34-.426-.243-.426-.243s-.712.179-.91.222c-.196.043-.18.289-.18.289l.129 1.845c-.085.035-.17.07-.254.109a6.87 6.87 0 0 0-.971.553l-1.426-1.03c-.3-.22-.491 0-.491 0s-.527.51-.678.646c-.151.136-.011.34-.011.34l1.03 1.537a6.83 6.83 0 0 0-.728 1.177l-1.755-.184c-.371-.04-.425.246-.425.246s-.2.705-.265.9c-.065.195.16.3.16.3l1.66.818a6.87 6.87 0 0 0-.045 1.39l-1.61.714c-.341.15-.245.425-.245.425s.174.71.217.91c.043.199.288.18.288.18l1.844-.117a6.739 6.739 0 0 0 .657 1.228c-.09.123-.832 1.138-1.04 1.42-.221.3 0 .492 0 .492s.507.53.642.68c.135.152.34.014.34.014l1.54-1.016c.368.284.764.53 1.18.735l-.192 1.753c-.042.372.244.427.244.427s.7.207.9.27c.2.063.3-.158.3-.158l.826-1.657c.46.065.926.082 1.39.053l.706 1.614c.148.342.423.248.423.248s.713-.172.91-.213c.199-.041.183-.292.183-.292Zm-7.113-6.131a4.9 4.9 0 1 1 8.884-4.136 4.9 4.9 0 0 1-8.884 4.136Z"/>
  <path fill="#989898" d="M68.028 18.273A3.593 3.593 0 1 0 61.51 21.3a3.593 3.593 0 0 0 6.518-3.026Zm-5.764 2.677a2.76 2.76 0 1 1 5.006-2.326 2.76 2.76 0 0 1-5.006 2.326Z"/>
  <path fill="#989898" d="M66.828 18.83a2.272 2.272 0 1 0-4.119 1.917 2.272 2.272 0 0 0 4.119-1.917Zm-3.9 1.81a2.028 2.028 0 1 1 3.68-1.706 2.028 2.028 0 0 1-3.68 1.707Z"/>
  <path fill="#305AEF" d="m74.389 45.01.348-2.054a7.872 7.872 0 0 0 1.519-.401c.114.134 1.033 1.207 1.288 1.508.273.321.538.13.538.13s.713-.42.914-.529c.2-.109.1-.37.1-.37l-.722-1.957c.407-.328.78-.696 1.113-1.1.132.047 1.5.532 1.874.668.4.142.53-.157.53-.157s.41-.718.529-.913c.119-.195-.1-.372-.1-.372l-1.6-1.338c.19-.488.329-.993.417-1.51.157-.029 1.564-.286 1.955-.356.413-.074.382-.4.382-.4v-1.055c0-.229-.268-.276-.268-.276l-2.051-.36a7.901 7.901 0 0 0-.077-.425 7.696 7.696 0 0 0-.365-1.243l1.487-1.317c.317-.277.12-.54.12-.54s-.43-.707-.54-.906c-.111-.199-.373-.1-.373-.1l-1.945.753a7.65 7.65 0 0 0-1.121-1.1l.638-1.883c.136-.4-.165-.528-.165-.528s-.724-.4-.92-.515c-.196-.115-.372.1-.372.1l-1.311 1.623c-.49-.18-.996-.31-1.511-.387-.032-.165-.31-1.559-.385-1.948-.081-.413-.406-.376-.406-.376s-.827.017-1.055.013c-.228-.004-.272.273-.272.273l-.328 2.058c-.1.018-.2.035-.306.056a7.74 7.74 0 0 0-1.207.36l-1.305-1.5c-.275-.317-.54-.123-.54-.123s-.708.426-.908.537c-.2.111-.1.372-.1.372l.743 1.948a7.75 7.75 0 0 0-1.1 1.115l-1.88-.647c-.4-.138-.53.162-.53.162s-.4.723-.52.918c-.118.195.1.372.1.372l1.617 1.32c-.185.49-.319.998-.4 1.515l-1.95.375c-.413.08-.377.405-.377.405s.012.826.007 1.055c-.005.23.27.272.27.272l2.057.34a7.633 7.633 0 0 0 .409 1.516c-.13.111-1.2 1.038-1.5 1.3-.32.273-.126.54-.126.54s.422.71.532.91c.11.2.37.1.37.1l1.955-.733c.33.406.701.776 1.108 1.106l-.657 1.878c-.141.4.16.53.16.53s.72.405.914.523c.194.118.372-.1.372-.1l1.33-1.61c.489.189.996.326 1.513.411l.365 1.952c.076.414.4.38.4.38s.825-.008 1.054 0c.229.008.265-.266.265-.266Zm-6.257-8.543a5.519 5.519 0 1 1 6.538 4.264 5.526 5.526 0 0 1-6.538-4.264Z"/>
  <path fill="#305AEF" d="M77.5 34.5a4.052 4.052 0 1 0-7.93 1.67 4.052 4.052 0 0 0 7.93-1.67Zm-7.011 1.476a3.112 3.112 0 1 1 1.345 1.96 3.115 3.115 0 0 1-1.346-1.965l.001.005Z"/>
  <path fill="#305AEF" d="M76.04 34.8a2.56 2.56 0 1 0-5.012 1.055 2.56 2.56 0 0 0 5.011-1.055Zm-4.74 1a2.287 2.287 0 1 1 4.475-.943 2.287 2.287 0 0 1-4.475.943Z"/>
  <path fill="#3F323F" d="m54.885 48.682-.166-2.81a10.687 10.687 0 0 0 1.881-.99c.192.141 1.728 1.275 2.155 1.594.456.34.75.005.75.005s.81-.768 1.041-.972c.232-.204.023-.52.023-.52l-1.547-2.357c.437-.557.815-1.158 1.128-1.792.19.022 2.135.245 2.672.31.565.065.652-.37.652-.37s.32-1.07.418-1.362c.098-.292-.238-.462-.238-.462l-2.518-1.273c.103-.7.133-1.41.091-2.117.2-.085 1.971-.85 2.465-1.062.522-.224.382-.644.382-.644s-.257-1.088-.317-1.39c-.06-.302-.437-.282-.437-.282l-2.812.152a9.346 9.346 0 0 0-.23-.538 10.39 10.39 0 0 0-.878-1.524c.13-.182 1.25-1.748 1.563-2.182.331-.462-.007-.749-.007-.749s-.78-.8-.989-1.027c-.208-.227-.519-.015-.519-.015l-2.332 1.583a10.45 10.45 0 0 0-1.81-1.1c.021-.2.211-2.138.266-2.674.058-.565-.378-.645-.378-.645s-1.075-.3-1.37-.4c-.295-.1-.457.245-.457.245l-1.234 2.537a10.322 10.322 0 0 0-2.118-.058c-.093-.208-.882-1.959-1.1-2.447-.232-.52-.65-.372-.65-.372s-1.083.273-1.385.34c-.302.065-.274.44-.274.44l.195 2.81a10.012 10.012 0 0 0-1.866 1.01L42.763 26c-.46-.335-.749 0-.749 0s-.8.776-1.032.983c-.232.207-.018.52-.018.52l1.572 2.34c-.43.56-.803 1.164-1.11 1.8l-2.674-.28c-.565-.06-.648.375-.648.375s-.309 1.073-.4 1.367c-.09.294.243.458.243.458l2.531 1.247a10.46 10.46 0 0 0-.07 2.118c-.2.09-1.963.872-2.453 1.088-.52.23-.375.648-.375.648s.267 1.085.331 1.387c.064.302.44.276.44.276l2.811-.18a10.5 10.5 0 0 0 .999 1.872c-.136.187-1.267 1.734-1.584 2.164-.336.458 0 .75 0 .75s.772.806.978 1.036c.206.23.52.02.52.02l2.348-1.558a10.55 10.55 0 0 0 1.8 1.12c-.02.192-.234 2.134-.3 2.672-.063.565.372.65.372.65s1.072.314 1.365.411c.293.097.461-.24.461-.24l1.26-2.526c.701.099 1.41.126 2.117.08l1.075 2.46c.226.522.646.378.646.378s1.086-.26 1.388-.324c.302-.063.278-.43.278-.43Zm-10.84-9.343a7.46 7.46 0 1 1 9.908 3.624 7.47 7.47 0 0 1-9.908-3.624Z"/>
  <path fill="#3F323F" d="M55.779 33.89a5.478 5.478 0 1 0-9.937 4.613 5.478 5.478 0 0 0 9.937-4.613Zm-8.78 4.078a4.206 4.206 0 1 1 7.629-3.544A4.206 4.206 0 0 1 47 37.968Z"/>
  <path fill="#3F323F" d="M53.95 34.74a3.463 3.463 0 1 0-6.279 2.92 3.463 3.463 0 0 0 6.28-2.92Zm-5.942 2.76a3.09 3.09 0 1 1 5.602-2.608 3.09 3.09 0 0 1-5.602 2.608Z"/>
  <path fill="#C4C4C4" d="m67.386 54.936-.077-1.316a5.14 5.14 0 0 0 .879-.465c.09.066.81.6 1.01.746.2.146.35 0 .35 0s.38-.359.486-.454c.107-.095.011-.244.011-.244l-.723-1.1c.204-.26.38-.541.527-.838l1.251.146c.263.031.3-.173.3-.173s.15-.5.2-.638c.051-.138-.112-.215-.112-.215l-1.177-.6c.048-.328.062-.66.042-.99l1.154-.5c.244-.1.178-.3.178-.3s-.12-.51-.148-.65c-.028-.142-.2-.134-.2-.134l-1.315.071a4.938 4.938 0 0 0-.516-.965c.061-.085.584-.817.731-1.02.147-.205 0-.35 0-.35s-.366-.375-.464-.482c-.098-.107-.242-.006-.242-.006l-1.09.74a4.9 4.9 0 0 0-.849-.515l.125-1.25c.025-.252-.177-.3-.177-.3s-.5-.143-.64-.187c-.142-.044-.215.115-.215.115l-.585 1.191a4.834 4.834 0 0 0-.993-.028c-.042-.1-.412-.916-.514-1.145-.102-.229-.3-.174-.3-.174s-.507.128-.649.16c-.142.03-.128.205-.128.205l.092 1.315a4.729 4.729 0 0 0-.874.472l-1.017-.736c-.214-.156-.35 0-.35 0s-.376.364-.482.461c-.106.097-.009.243-.009.243l.735 1.1a4.847 4.847 0 0 0-.519.844l-1.252-.13c-.264-.03-.3.174-.3.174s-.144.5-.189.64c-.045.14.114.214.114.214l1.185.584a4.9 4.9 0 0 0-.034.991l-1.147.51c-.244.107-.175.3-.175.3s.124.507.155.65c.031.141.206.128.206.128l1.315-.084a4.813 4.813 0 0 0 .467.871l-.74 1.013c-.149.201 0 .35 0 .35s.361.378.457.486c.096.108.243.01.243.01l1.1-.73c.263.203.545.378.842.524l-.138 1.251c-.028.251.173.3.173.3s.5.146.64.192c.138.046.215-.114.215-.114l.59-1.18c.327.047.66.059.99.037l.5 1.151c.1.23.3.177.3.177s.507-.123.65-.15c.141-.029.127-.199.127-.199Zm-5.07-4.373a3.49 3.49 0 1 1 6.333-2.934 3.49 3.49 0 0 1-6.334 2.934Z"/>
  <path fill="#C4C4C4" d="M67.805 48.013a2.563 2.563 0 1 0-4.653 2.15 2.563 2.563 0 0 0 4.653-2.15Zm-4.105 1.91a1.97 1.97 0 1 1 3.571-1.661 1.97 1.97 0 0 1-3.571 1.66Zm-40.9-2.769-.078-1.315a5.028 5.028 0 0 0 .879-.465l1.008.746c.214.16.35 0 .35 0s.38-.359.489-.454c.109-.095.01-.244.01-.244l-.723-1.1c.203-.26.38-.541.527-.838l1.25.145c.264.031.306-.173.306-.173s.149-.5.195-.638c.046-.138-.113-.218-.113-.218l-1.177-.6a4.97 4.97 0 0 0 .042-.99l1.154-.5c.244-.106.178-.3.178-.3s-.12-.51-.148-.652c-.028-.142-.2-.13-.2-.13l-1.316.07a4.99 4.99 0 0 0-.516-.966l.73-1.02c.148-.203 0-.35 0-.35s-.365-.375-.463-.482c-.098-.107-.242-.006-.242-.006l-1.091.74a5.034 5.034 0 0 0-.847-.516l.124-1.25c.024-.25-.177-.3-.177-.3s-.5-.142-.641-.186c-.141-.044-.214.115-.214.115l-.576 1.188a4.834 4.834 0 0 0-.993-.028c-.042-.1-.412-.916-.514-1.145-.102-.229-.3-.174-.3-.174s-.507.128-.648.16c-.141.03-.13.205-.13.205l.093 1.315a4.729 4.729 0 0 0-.874.473c-.085-.062-.814-.589-1.016-.737-.202-.148-.351 0-.351 0s-.376.363-.483.46c-.107.097-.008.243-.008.243l.735 1.095a4.922 4.922 0 0 0-.52.844l-1.25-.13c-.265-.029-.3.174-.3.174s-.144.5-.19.64c-.044.14.115.215.115.215l1.184.583a4.9 4.9 0 0 0-.032.991l-1.148.51c-.244.107-.176.3-.176.3s.126.505.155.648c.029.143.206.13.206.13l1.315-.085c.029.068.057.135.089.2.108.234.235.459.379.672l-.741 1.013c-.148.201 0 .35 0 .35s.36.38.458.486c.097.107.225.027.225.027l1.1-.729c.262.203.544.378.84.524l-.136 1.251c-.028.251.173.3.173.3s.5.147.639.192c.139.045.216-.114.216-.114l.59-1.18c.328.047.66.059.99.037l.5 1.151c.1.23.3.177.3.177s.508-.123.65-.15c.142-.029.138-.205.138-.205Zm-5.073-4.373a3.49 3.49 0 1 1 6.337-2.934 3.49 3.49 0 0 1-6.338 2.934Z"/>
  <path fill="#C4C4C4" d="M23.217 40.231a2.563 2.563 0 1 0-4.649 2.162 2.563 2.563 0 0 0 4.65-2.162Zm-4.11 1.91a1.969 1.969 0 1 1 3.574-1.655 1.969 1.969 0 0 1-3.574 1.654Z"/>
  <path fill="#5974FF" d="m31.867 39.326.141-1.748a6.567 6.567 0 0 0 1.245-.449c.106.1.956.937 1.192 1.17.251.25.461.068.461.068s.567-.4.728-.508c.161-.108.06-.32.06-.32l-.75-1.589c.317-.306.602-.644.85-1.008.116.03 1.3.336 1.622.422.342.09.435-.171.435-.171s.29-.632.375-.805c.086-.173-.107-.3-.107-.3l-1.444-1c.125-.424.206-.86.24-1.3l1.613-.442c.342-.093.291-.364.291-.364s-.064-.694-.074-.886c-.01-.192-.246-.211-.246-.211l-1.748-.15a4.114 4.114 0 0 0-.1-.352 6.584 6.584 0 0 0-.407-1.017l1.156-1.218c.245-.255.061-.462.061-.462s-.412-.56-.522-.72c-.11-.16-.319-.054-.319-.054l-1.575.775a6.62 6.62 0 0 0-1.023-.837c.031-.123.317-1.3.4-1.626.085-.345-.178-.432-.178-.432s-.637-.28-.81-.364c-.175-.084-.3.113-.3.113L32.146 25a6.458 6.458 0 0 0-1.3-.22c-.039-.136-.375-1.285-.467-1.605-.1-.341-.369-.286-.369-.286s-.692.075-.884.09c-.192.015-.208.248-.208.248l-.119 1.751c-.085.022-.17.044-.254.07a6.384 6.384 0 0 0-.986.392l-1.21-1.16c-.255-.246-.462-.063-.462-.063s-.563.409-.722.518c-.159.109-.056.318-.056.318l.767 1.581c-.314.31-.596.65-.84 1.017l-1.627-.405c-.343-.086-.432.175-.432.175s-.284.636-.368.81c-.084.174.11.3.11.3l1.454.988c-.118.425-.194.86-.226 1.3-.132.038-1.287.368-1.608.458-.34.1-.288.369-.288.369s.071.691.085.884c.014.193.248.208.248.208l1.75.133a6.391 6.391 0 0 0 .456 1.241c-.1.1-.934.961-1.168 1.2-.234.239-.065.46-.065.46s.407.566.515.726c.108.16.32.057.32.057l1.583-.755c.308.315.647.599 1.012.846-.03.117-.329 1.3-.413 1.625-.084.325.172.433.172.433s.636.285.808.371c.172.086.305-.11.305-.11l1-1.447c.425.121.86.199 1.3.232.036.131.361 1.288.45 1.611.094.341.366.289.366.289s.693-.068.885-.079c.192-.011.206-.245.206-.245Zm-5.88-6.705a4.648 4.648 0 1 1 8.896-2.697 4.648 4.648 0 0 1-8.896 2.697Z"/>
  <path fill="#5974FF" d="M33.7 30.275a3.414 3.414 0 1 0-6.532 1.986 3.414 3.414 0 0 0 6.532-1.986Zm-5.774 1.757a2.622 2.622 0 1 1 5.017-1.525 2.622 2.622 0 0 1-5.017 1.525Z"/>
  <path fill="#5974FF" d="M32.5 30.64a2.157 2.157 0 1 0-4.125 1.259A2.157 2.157 0 0 0 32.5 30.64Zm-3.906 1.19a1.924 1.924 0 1 1 3.686-1.121 1.924 1.924 0 0 1-3.688 1.12h.002Z"/>
  <path fill="#101010" d="M16.9 76.847h13.088l-.5 2.361H23.12L21.908 84.9h5.314l-.5 2.394H21.41l-1.989 9.286h-6.712L16.9 76.847Z"/>
  <path fill="#101010" d="m40.21 83.062 4.756-6.215H48.7L41.33 85.7l4.63 10.88h-7.676l-2.641-6.18-4.786 6.18h-3.73l7.335-8.98-4.568-10.753h7.676l2.64 6.215Z"/>
  <path fill="#101010" d="M68.41 96.58h-6.9l2.86-13.425-7.365 13.425h-4.227l-1.4-13.89L48.4 96.58h-2.8l4.2-19.733h7.924l.964 11.125 5.966-11.125h7.987L68.41 96.58Zm14.195-14.016c.07-.42.102-.847.093-1.273 0-.307-.02-.613-.063-.917a3.127 3.127 0 0 0-.217-.809 1.244 1.244 0 0 0-.466-.559 1.466 1.466 0 0 0-.808-.2 2.145 2.145 0 0 0-1.026.248c-.306.165-.583.38-.818.636a2.926 2.926 0 0 0-.762 1.973c0 .54.14.955.42 1.244a3.17 3.17 0 0 0 1.1.714 9.104 9.104 0 0 0 1.554.466c.58.126 1.18.27 1.8.435.53.15 1.05.337 1.554.56.51.224.979.535 1.383.918.43.422.763.93.98 1.492.247.612.371 1.373.372 2.284 0 1.306-.259 2.406-.777 3.3a6.173 6.173 0 0 1-2.144 2.175c-.912.559-1.995.963-3.248 1.212a21.004 21.004 0 0 1-4.086.373c-1.492 0-2.71-.1-3.652-.3-.943-.2-1.683-.412-2.222-.636-.642-.267-1.119-.577-1.43-.932l1.058-4.26h5.47c-.02.185-.042.44-.062.76-.02.321-.032.575-.032.762.002.261.033.522.093.776.06.263.162.514.3.746.14.233.338.426.575.56.286.154.608.23.932.217a2.16 2.16 0 0 0 1.1-.279c.313-.179.587-.416.81-.7a3.19 3.19 0 0 0 .67-1.942c.013-.408-.1-.81-.327-1.15a2.735 2.735 0 0 0-.886-.792 6.389 6.389 0 0 0-1.289-.56c-.487-.154-.99-.315-1.508-.482a22.37 22.37 0 0 1-1.574-.524 5.314 5.314 0 0 1-1.507-.87 4.51 4.51 0 0 1-1.134-1.414c-.3-.57-.45-1.3-.45-2.19 0-1.326.336-2.439 1.01-3.34a7.802 7.802 0 0 1 2.547-2.193 11.692 11.692 0 0 1 3.372-1.2c1.146-.23 2.312-.35 3.481-.357 1.45 0 2.698.17 3.745.512 1.047.341 1.84.742 2.377 1.2l-1.15 4.32-5.158-.004Z"/>
</svg>
