<svg xmlns="http://www.w3.org/2000/svg" fill="none" viewBox="0 0 54 54">
  <path fill="#ED4C5C" d="M40.5 5.57A25.48 25.48 0 0 0 27 1.69v3.88h13.5Z"/>
  <path fill="#fff" d="M27 9.45h18.23a29.65 29.65 0 0 0-4.73-3.88H27v3.88Z"/>
  <path fill="#ED4C5C" d="M27 13.33h21.35a28.09 28.09 0 0 0-3.04-3.88H27v3.88Z"/>
  <path fill="#fff" d="M27 17.21h23.37a28.1 28.1 0 0 0-2.02-3.88H27v3.88Z"/>
  <path fill="#ED4C5C" d="M27 21.1h24.64a29.81 29.81 0 0 0-1.27-3.89H27v3.88Z"/>
  <path fill="#fff" d="M27 25.06h25.23a28.3 28.3 0 0 0-.6-3.88H27v3.88"/>
  <path fill="#ED4C5C" d="M52.23 25.06H27V27H1.69c0 .68 0 1.27.08 1.94h50.46c.08-.67.08-1.27.08-1.94 0-.68 0-1.35-.08-1.94"/>
  <path fill="#fff" d="M2.36 32.82h49.28c.34-1.26.5-2.53.59-3.88H1.77c.09 1.27.34 2.62.6 3.88Z"/>
  <path fill="#ED4C5C" d="M3.63 36.7h46.74c.5-1.26.93-2.53 1.27-3.88H2.36a29.8 29.8 0 0 0 1.27 3.88Z"/>
  <path fill="#fff" d="M5.65 40.58h42.7a33.9 33.9 0 0 0 2.02-3.88H3.63a33.9 33.9 0 0 0 2.02 3.88"/>
  <path fill="#ED4C5C" d="M8.7 44.47h36.6c1.1-1.19 2.2-2.54 3.05-3.89H5.65c.85 1.44 1.94 2.7 3.04 3.89Z"/>
  <path fill="#fff" d="M13.42 48.35h27.16c1.78-1.1 3.3-2.45 4.73-3.88H8.69a25.7 25.7 0 0 0 4.73 3.88Z"/>
  <path fill="#ED4C5C" d="M27 52.31a25.1 25.1 0 0 0 13.58-3.96H13.42A25.1 25.1 0 0 0 27 52.3Z"/>
  <path fill="#428BC1" d="M13.5 5.57a26.91 26.91 0 0 0-4.8 3.88 21.96 21.96 0 0 0-3.05 3.88 24.3 24.3 0 0 0-2.02 3.88 29.8 29.8 0 0 0-1.27 3.88c-.33 1.27-.5 2.54-.59 3.89-.08.67-.08 1.34-.08 2.02H27V1.69c-4.98 0-9.53 1.43-13.5 3.88Z"/>
  <path fill="#fff" d="m21.1 2.53.42 1.27h1.26l-1.01.84.34 1.27-1.02-.76-1 .76.33-1.27-1.01-.84h1.26l.42-1.27Zm3.37 5.07.42 1.26h1.27l-1.02.84.34 1.27-1.01-.76-1.01.76.33-1.27-1-.84h1.26l.42-1.27Zm-6.75 0 .42 1.26h1.27l-1.02.84.34 1.27-1.01-.76-1.01.76.33-1.27-1-.84h1.26l.42-1.27Zm3.38 5.06.42 1.26h1.26l-1.01.85.34 1.26-1.02-.76-1 .76.33-1.26-1.01-.85h1.26l.42-1.26Zm-6.76 0 .43 1.26h1.26l-1.01.85.34 1.26-1.02-.76-1 .76.33-1.26-1.01-.85h1.26l.42-1.26Zm-6.74 0 .42 1.26h1.26l-1.01.85.34 1.26-1.02-.76-1 .76.33-1.26-1.01-.85h1.26l.42-1.26Zm16.87 5.06.42 1.26h1.27l-1.02.85.34 1.26-1.01-.76-1.01.76.33-1.26-1-.85h1.26l.42-1.26Zm-6.75 0 .42 1.26h1.27l-1.02.85.34 1.26-1.01-.76-1.01.76.33-1.26-1-.85h1.26l.42-1.26Zm-6.75 0 .42 1.26h1.27l-1.02.85.34 1.26-1.01-.76-1.01.76.33-1.26-1-.85h1.26l.42-1.26Zm10.13 5.06.42 1.27h1.26l-1.01.84.34 1.27-1.02-.76-1 .76.33-1.27-1.01-.84h1.26l.42-1.27Zm-6.76 0 .43 1.27h1.26l-1.01.84.34 1.27-1.02-.76-1 .76.33-1.27-1.01-.84h1.26l.42-1.27Zm-6.74 0 .42 1.27h1.26l-1.01.84.34 1.27-1.02-.76-1 .76.33-1.27-1.01-.84h1.26l.42-1.27Zm2.36-11.81 1-.76 1.02.76-.42-1.27 1.01-.84h-1.26l-.34-1.27-.42 1.27H9.37l1 .76-.41 1.35M3.2 21.1l1.02-.77 1.01.76-.42-1.26 1.01-.85H4.64l-.42-1.26-.42 1.26h-.85c0 .09-.08.17-.08.26l.67.5-.33 1.35"/>
</svg>
